<svg width="136" height="62" viewBox="0 0 136 62" fill="none" xmlns="http://www.w3.org/2000/svg">
<path d="M0.00322959 58.7645C0.287765 58.5495 0.694967 58.4209 1.08228 58.4582C1.17218 58.4662 1.18901 58.6298 1.22942 58.6505C1.30456 58.6886 1.38338 58.4945 1.39745 58.4918C1.48895 58.4726 1.50682 58.7621 1.52146 58.7707C1.68559 58.8576 1.58183 58.544 1.69792 58.486C1.80398 58.4318 1.93769 58.4187 2.03478 58.4072C2.07862 58.401 2.12703 58.3917 2.17518 58.3777C2.23621 58.36 2.28972 58.5765 2.42275 58.4988C2.51823 58.4451 2.72446 58.0651 3.00896 58.2136C3.05751 58.3019 3.08988 58.4109 3.1302 58.5073C3.1628 58.0127 3.24603 57.9877 3.63736 57.8815C3.69952 57.8644 3.6643 57.6854 3.79287 57.6847C3.92203 57.6836 4.05851 57.9119 4.25608 57.794C4.32611 57.7516 4.27561 57.564 4.38317 57.4933C4.43527 57.459 4.49989 57.4263 4.57297 57.395C4.84772 57.2921 5.2736 57.1951 5.43208 57.0769C5.81178 56.7954 5.76022 56.3956 6.10995 56.1725C6.13707 56.1539 6.24487 56.3428 6.2871 56.3008C6.32993 56.2581 6.16263 56.0337 6.16618 56.0194C6.20954 55.8623 6.70565 55.8123 6.72763 55.7039C6.7743 55.4519 6.54292 55.5729 6.68699 55.275C6.72065 55.2054 6.77792 55.1413 6.8516 55.0777C7.03714 54.9489 7.35157 54.8356 7.49319 54.6636C7.70953 54.3958 7.2689 54.1046 7.86547 54.0549C8.1681 53.1626 8.41428 52.175 8.64111 51.1859C8.74428 51.2153 8.84738 51.2452 8.9504 51.2753C8.89867 51.1781 8.84597 51.0838 8.79485 50.9864C8.86924 51.0179 8.94386 51.0488 9.01746 51.0801C9.0012 51.0448 8.98581 51.0097 8.97135 50.9749C8.79527 50.6012 8.72513 50.3072 8.85827 49.9531C8.86105 49.9454 9.06933 49.9982 9.07577 49.9925C9.12967 49.9066 8.98094 49.7809 9.02952 49.7058C9.14721 49.5256 9.64417 49.2231 9.06186 49.3192C9.2267 48.8647 9.06393 48.2706 9.22194 47.7691C9.24769 47.6875 9.31337 47.6317 9.38649 47.5893C9.5055 47.5299 9.64451 47.4984 9.66221 47.441C9.69034 47.3487 9.39662 47.3699 9.38854 47.3359C9.34295 47.1333 9.37588 46.8075 9.70212 46.7899C9.57495 46.7415 9.44622 46.6905 9.31799 46.6426C9.67785 46.688 9.55776 46.0457 9.57104 45.8764C9.57371 45.8458 9.73172 45.8468 9.7309 45.8233C9.71934 45.5623 9.47367 45.4909 9.39832 45.2644C9.37169 45.1852 9.6462 45.3159 9.53227 45.1098C9.52226 45.0921 9.27194 45.0933 9.28111 44.8511C9.2926 44.5419 9.24751 43.9986 9.30433 43.5586C9.31838 43.4492 9.33815 43.3484 9.3661 43.2602C9.37717 43.2239 9.64535 43.3458 9.58823 43.176C9.56788 43.1154 9.37351 43.1351 9.37731 42.985C9.38989 42.4061 9.62843 41.8025 9.44845 41.211C9.66683 41.2341 9.91035 41.4468 9.77571 41.1301C9.75336 41.0804 9.55794 41.1162 9.55081 41.0941C9.49533 40.9117 9.6348 40.7562 9.55831 40.5597C9.53524 40.5027 9.38187 40.4914 9.34471 40.4186C9.28931 40.3119 9.50725 40.2676 9.41194 40.1431C9.2616 39.9563 9.05413 39.935 9.4517 39.686C9.4004 38.6141 9.16599 37.6669 9.05026 36.5021C9.02531 36.2181 9.01005 35.934 9.00677 35.6493C8.83579 35.2681 8.65573 34.9219 8.55117 34.5204C8.52046 34.4022 8.79146 34.3378 8.67132 34.16C8.64491 34.1196 8.30331 33.8623 8.84958 33.7294C8.78824 33.6521 8.77791 33.5986 8.73656 33.5306C8.6644 33.5991 8.59151 33.6693 8.51796 33.7353C8.55698 33.4141 8.31977 33.1971 8.18011 32.9465C8.07735 32.7618 8.3391 32.8589 8.29333 32.7421C8.24811 32.6253 8.18497 32.5812 8.43895 32.376C8.36583 32.3641 8.3174 32.3495 8.28621 32.3316C8.16585 32.2495 8.2914 32.1226 8.26691 31.9241C8.26338 31.8974 8.11197 31.7603 8.12025 31.6269C8.1263 31.5311 8.32805 31.4778 8.27905 31.3374C8.27092 31.3147 7.9826 31.0371 7.95061 30.9427C7.89888 30.7951 8.14345 30.5394 8.14437 30.5117C8.15657 30.1012 7.88442 29.9779 8.28807 29.6661C8.0275 29.6348 7.85637 29.4314 7.85898 29.2649C7.86001 29.2007 7.90234 29.1127 7.94408 29.0219C8.02171 28.6192 8.14994 28.5203 7.77482 28.6286C7.90487 28.6292 7.95154 28.6856 7.99612 28.7602C7.97128 28.7428 7.92492 28.7433 7.88378 28.7064C7.84468 28.6726 7.81057 28.5737 7.68616 28.463C7.56756 28.3535 7.36161 28.2443 7.24716 28.2271C7.01312 28.1908 7.03792 28.5188 6.93107 28.5309C6.74509 28.5481 6.90005 28.3566 6.77941 28.3238C6.50776 28.2477 6.20614 28.1764 5.84261 28.0368C5.76354 28.0108 5.68338 27.9854 5.60106 27.96C5.6687 27.814 5.73681 27.6673 5.80644 27.5223C5.76275 27.5576 5.71879 27.5926 5.6745 27.6273C5.61173 27.5846 5.53998 27.5401 5.48603 27.4966C5.58635 28.4157 5.02783 27.1203 4.83761 26.9041C4.64148 26.7197 4.09453 26.6675 3.8434 26.528C3.78224 26.4945 3.93447 26.401 3.92169 26.3944C3.77075 26.3193 3.67152 26.3873 3.52974 26.2306C3.45544 26.148 3.52248 25.9143 3.44803 25.8393C3.37657 25.7674 3.3031 25.7003 3.22808 25.6372C2.60748 25.1148 1.93541 24.5261 1.52313 23.7824C1.44142 23.6362 1.61721 23.3945 1.56728 23.2729C1.49617 23.0985 1.25051 23.0721 1.18043 22.9053C1.17975 22.9037 1.17909 22.902 1.17844 22.9004C1.1138 22.7338 1.26739 22.4125 1.19466 22.3148C1.12035 22.2117 0.946651 22.488 0.94337 22.2529C0.943134 22.1462 1.1741 22.2617 1.14256 22.1411C1.04331 21.7721 0.69453 21.2607 0.861261 20.8233C0.80868 20.8487 0.762689 20.8805 0.713349 20.9104C0.670606 20.471 0.774234 20.0914 0.768264 19.6774C0.766555 19.5329 0.590622 19.2844 0.585397 19.1448C0.58016 19.0068 0.754878 18.9368 0.755355 18.8267C0.755959 18.7813 0.597797 18.8047 0.599842 18.7749C0.626931 18.3973 0.902435 18.1824 0.853659 17.7944C0.822309 17.546 0.79041 17.297 0.757276 17.0459C0.602407 15.8144 0.514738 14.5854 0.429723 13.3689C0.425726 13.3098 0.218782 13.2691 0.188556 13.1822C0.141796 13.0484 0.324944 13.043 0.331488 13.0253C0.372482 12.9094 0.202716 12.9557 0.2038 12.7997C0.206096 12.4562 0.362135 11.9047 0.35397 11.5636C0.334826 10.778 0.185691 10.1125 0.120186 9.34296C0.114884 9.28787 0.359232 9.32979 0.36449 9.23344C0.366882 9.193 0.368304 9.15487 0.368878 9.11871C0.368467 9.10769 0.371124 9.07467 0.371152 9.06363C0.403696 8.4835 0.210676 8.29761 0.322761 7.51001C0.444255 6.66939 0.685651 5.10303 0.829309 4.0715C0.829875 4.07156 0.830442 4.07162 0.831008 4.07169C0.667394 3.92641 0.593572 3.77274 0.586859 3.62748L0.578372 3.72528C0.55172 3.54156 0.680857 3.33197 0.892758 3.14196C1.01457 3.35207 1.11428 3.56087 1.19158 3.75924L1.19675 3.69966C1.68994 5.50478 1.23474 7.08868 1.15423 8.91467C1.15165 8.9791 1.1497 9.04462 1.14834 9.11124C1.14833 9.11607 1.14717 9.13051 1.14735 9.13534C1.19132 11.2383 1.91338 13.4733 1.84317 15.5831C1.83669 15.7875 1.58053 15.875 1.63917 16.0482C1.6491 16.077 1.84592 15.9965 1.86855 16.0851C1.94225 16.3801 1.97635 16.6798 1.99159 16.9805C2.04335 17.9414 1.82194 18.932 1.97932 19.8408C2.03786 20.1624 2.26364 20.1928 2.35294 20.4589C2.24294 20.4241 2.13027 20.4046 2.02039 20.373C1.92086 21.0773 2.05021 21.7938 2.30831 22.4537C2.53446 23.0427 2.85442 23.5963 3.23374 24.1126C3.26967 24.162 3.10572 24.3045 3.14218 24.3616C3.21565 24.4771 3.47892 24.4139 3.56051 24.4891C3.6685 24.588 3.56383 24.7274 3.67129 24.8166C3.72424 24.8592 3.8234 24.7258 3.90939 24.8433C3.91315 24.8485 3.88469 24.8872 3.8689 24.9301C3.85388 24.9691 3.849 25.0111 3.88877 25.0329C4.11638 25.1554 4.59513 25.4107 4.7792 25.5245C5.01322 25.6694 4.99593 26.0093 5.06277 26.0922C5.24278 26.3144 5.41521 26.1081 5.59461 26.2582C5.88087 26.4942 6.16958 26.7237 6.47933 26.9283C7.29914 27.42 8.29436 27.5382 8.68489 28.2424C8.74165 28.3319 8.74312 28.5679 8.78064 28.8834C8.79478 28.9813 8.80802 29.0805 8.82108 29.181C8.83554 29.2804 9.17358 29.6391 9.17795 29.839C9.17915 29.9055 9.12914 30.2576 9.12702 30.3103C9.11964 30.5226 8.95603 30.7217 8.92975 30.8433C8.87768 31.0799 9.18806 31.3049 9.2323 31.423C9.30816 31.6326 9.33573 32.0202 9.34765 32.1123C9.34818 32.117 9.34853 32.1216 9.34872 32.1261C9.35643 32.3298 9.01712 32.3271 9.12344 32.4616C9.15571 32.5023 9.41029 32.406 9.43957 32.5662C9.46304 32.7006 9.27414 32.7902 9.25442 32.8876C9.23488 32.9847 9.57085 33.1001 9.57277 33.159C9.57993 33.466 9.39955 33.6306 9.43979 33.9577C9.47588 34.2279 9.79701 35.4644 9.88373 35.5597C10.2745 35.9831 10.0189 35.2223 10.0235 35.1767C10.0527 34.9298 10.1823 34.9465 9.91019 34.7434C10.6136 34.4223 9.36105 33.8554 10.1983 33.5296C9.58858 33.4254 9.85335 33.2157 9.93413 32.9885C10.0453 32.6749 9.74672 32.9506 9.70797 32.7434C9.69312 32.6621 9.91186 32.3768 9.85199 32.2599C9.80923 32.1764 9.68932 32.1459 9.60889 32.0758C9.57702 32.0484 9.55151 32.0146 9.53995 31.9688C9.46689 31.6807 9.52886 31.4267 9.743 31.1558C9.63048 31.1238 9.51834 31.094 9.40602 31.0607C9.50284 30.8768 9.60163 30.6954 9.70151 30.5147C9.6099 30.5503 9.51752 30.5861 9.426 30.622C9.40782 30.5732 9.39048 30.5236 9.37328 30.4747C9.50023 30.2951 9.61831 30.1253 9.74996 29.9397C9.16508 29.5151 9.64785 29.6125 9.69115 29.3371C9.72912 29.0805 9.44505 28.9601 9.37424 28.7851C9.36887 28.7736 9.36503 28.761 9.36301 28.7476C9.3209 28.4973 9.31446 28.3617 9.18635 28.0236C9.17074 27.9889 9.15769 27.9457 9.14098 27.8996C9.09313 27.7234 9.07571 27.5087 8.91137 27.9214C8.54768 27.5217 7.86483 27.4177 7.49157 27.1173C7.38117 27.0262 7.59134 26.9281 7.57528 26.9039C7.49175 26.7867 7.335 26.9991 7.23703 26.9328C7.06672 26.8247 6.82535 26.5242 6.76617 26.4292C6.76613 26.4292 6.76609 26.4291 6.76605 26.4291C6.63451 26.2819 6.19613 26.3656 6.15196 26.361C5.92189 26.354 6.04337 26.1101 5.98582 26.0886C5.65373 25.9597 5.51848 25.9835 5.808 25.4943C5.58486 25.622 5.02605 25.6625 5.23741 25.3013C4.98453 25.5688 4.79508 25.3046 4.5895 25.236C4.63637 25.1337 4.68226 25.0313 4.72941 24.9282C4.43428 25.0047 4.21521 24.9121 4.03326 24.7487C3.74698 24.4944 3.60579 24.0459 3.46105 23.7693C3.45501 23.7584 3.21882 23.9035 3.22167 23.8011C3.22294 23.794 3.32794 23.7282 3.31084 23.6762C3.23909 23.502 3.19134 22.7923 3.17186 22.7283C3.06514 22.4849 2.86022 22.5227 2.77666 22.3738C2.75857 22.3411 2.74812 22.3106 2.74278 22.2819C2.71661 22.1388 2.81548 22.0486 2.73787 21.8927C2.69559 21.8062 2.43419 21.7951 2.42262 21.6327C2.41619 21.5374 2.59897 21.4775 2.59572 21.4052C2.58625 21.1486 2.43003 20.9852 2.64016 20.7233C2.02793 20.7624 2.4553 20.5802 2.48715 20.4655C2.61481 19.9967 2.32775 19.4306 2.36557 19.013C2.43202 18.3043 2.56601 17.6268 2.66528 16.9448C2.74931 16.4096 2.83337 15.8714 2.8628 15.3078C2.87353 15.104 2.56645 15.06 2.58368 14.846C2.59176 14.7499 2.81284 14.6492 2.81516 14.4923C2.8176 14.3662 2.7041 14.1854 2.70465 14.0278C2.70459 13.9858 2.91269 13.9819 2.91427 13.92C2.92612 13.4525 2.78068 12.9939 2.68327 12.5181C2.64703 12.3418 2.92395 12.2358 2.44378 12.2607C2.56222 12.1945 2.66545 12.1302 2.7823 12.0686C2.4826 11.8223 2.80026 11.6291 2.72762 11.3001C2.71889 11.2644 2.39091 11.0122 2.63266 10.8748C2.46189 10.8621 2.31638 10.8815 2.16164 10.8749C2.09856 10.7356 2.29969 10.5255 2.32163 10.431C2.34345 10.3372 2.12255 10.272 2.12092 10.2428C2.11728 10.1345 2.40884 10.1655 2.41383 10.1573C2.7032 9.66233 2.54673 9.71379 2.11507 9.40128C2.07164 9.37202 2.09827 9.26878 2.12416 9.1562L2.12355 9.17097C2.16997 8.99275 2.21557 8.79256 2.01202 8.71299C2.15314 8.71694 2.27529 8.75357 2.40916 8.77023C2.45505 8.6159 2.50167 8.46628 2.54764 8.31209C2.41036 8.33628 2.27251 8.36742 2.13457 8.38925C2.27142 8.08569 1.96978 7.79467 1.99633 7.54109C2.01234 7.39122 2.30989 7.42947 2.25016 7.3398C2.23832 7.32224 2.03462 7.33793 2.02163 7.28685C1.91702 6.86597 2.14185 6.70197 2.21005 6.29153C2.24225 6.10252 1.88721 5.90547 2.14844 5.64796C2.17302 5.6217 2.51813 5.37932 2.06506 5.17514C2.21654 5.13168 2.29728 5.09478 2.42447 5.06309C1.76051 4.67032 2.42962 4.81392 2.63375 4.38284C2.67879 4.28824 2.69828 4.09483 2.70518 3.87817C2.70641 3.87125 2.70741 3.85021 2.70821 3.84322C2.69971 3.52751 2.6461 3.19255 2.6058 3.04023C2.56297 2.88349 2.28976 2.88311 2.27921 2.85556C2.21815 2.6903 2.48268 2.69222 2.44034 2.53923C2.39785 2.38605 2.09927 2.1926 2.12702 2.03639C2.14836 1.91682 2.47698 2.0117 2.36269 1.83452C2.33793 1.79785 2.05887 1.90224 2.16845 1.71578C2.18543 1.68647 2.48724 1.38827 2.55257 1.32715C2.72764 1.48396 2.95588 1.93971 3.02628 2.11233C3.22841 2.61352 3.40363 3.17782 3.51116 3.88769C3.50921 3.90467 3.50678 3.95585 3.50378 3.97268C3.68298 5.47365 3.76131 7.41546 3.71125 9.26822L3.71447 9.19017C3.74362 11.045 3.6856 12.8233 3.62499 14.1131C3.6119 14.4005 3.326 14.589 3.30258 14.777C3.27932 14.9642 3.54085 14.8033 3.52084 14.973C3.50015 15.1422 3.31625 15.2686 3.30277 15.4259C3.25987 15.9283 3.2203 16.4294 3.19884 16.9166C3.17762 17.5105 3.1544 18.0991 3.14964 18.6669C3.14779 18.9448 3.37062 19.1541 3.38367 19.3949C3.38875 19.489 3.11363 19.5065 3.12013 19.5736C3.18682 20.3009 3.52234 20.8172 3.6677 21.3866C3.70575 21.5379 3.67301 21.7269 3.66769 21.9162C3.66354 22.0275 3.66817 22.1355 3.70051 22.2272C3.77181 22.4312 4.0122 22.548 4.1052 22.6973C4.15628 22.7782 4.00681 22.9334 4.01316 22.9737C4.03725 23.11 4.22563 22.9293 4.26044 22.9802C4.35518 23.1164 4.16328 23.3747 4.29207 23.4908C4.34263 23.535 4.48602 23.3997 4.56975 23.4468C4.67675 23.506 4.51444 23.5986 4.56975 23.6658C4.57275 23.67 4.66234 23.5598 4.69763 23.5877C4.7683 23.643 4.8509 23.6966 4.93881 23.7494C5.19135 23.9182 5.44776 24.0917 5.62022 24.2646C6.13569 24.7824 6.42059 25.4189 6.85841 25.7685C6.96829 25.8548 7.03434 25.6777 7.07446 25.6923C7.11048 25.705 7.13765 25.7226 7.15993 25.7433C7.19363 25.7959 7.18952 25.9438 7.36168 25.9356C7.39859 25.9349 7.60126 25.7323 7.75026 25.8414C7.82986 25.9002 7.89886 26.0851 7.97652 26.1475C8.05464 26.2102 8.13865 25.9908 8.25724 26.0302C8.47959 26.1092 8.35327 26.2264 8.69613 26.347C8.82259 26.3873 9.44246 26.4686 9.76984 26.8326C9.87535 26.9457 9.97043 27.0741 10.054 27.2133C10.5532 28.0516 10.3336 28.5317 10.3436 28.6247C10.3483 28.7794 10.3547 28.9283 10.3711 29.0705C10.3926 29.2598 10.6559 29.4769 10.6822 29.7547C10.7147 30.0974 10.7068 30.686 10.7401 30.9922C10.7566 31.1494 10.5088 31.1915 10.5007 31.2119C10.4468 31.3418 10.7194 31.2562 10.7192 31.3367C10.719 31.4463 10.5294 31.5786 10.5325 31.6795C10.5346 31.7437 10.7406 31.7171 10.7445 31.7299C10.7576 31.7702 10.7702 31.8097 10.7825 31.8488C10.9312 32.3554 10.9983 32.8271 11.1021 33.3434C11.2903 34.2832 11.4678 35.2168 11.6481 36.1321C12.1379 38.0963 12.3236 40.5698 12.1577 42.614C12.14 42.8744 11.8784 42.8707 11.9116 43.0982C11.9401 43.3058 12.3863 43.5086 12.0327 43.6721C11.9902 43.6906 11.9362 43.7082 11.8685 43.7248C11.994 43.7357 12.0837 43.7388 12.1979 43.7493C12.0021 44.1922 12.1706 44.6498 12.1795 45.0954C12.1863 45.4258 12.1576 45.721 12.1328 46.0339C12.1097 46.3128 11.8917 46.2784 12.1667 46.5369C12.084 46.9654 12.0199 47.4126 11.9384 47.8642C11.8095 48.506 11.7345 49.3318 11.4292 50.1285C11.8522 50.4918 11.5127 50.7507 11.3566 51.147C11.3367 51.1963 11.5165 51.1776 11.4675 51.3281C11.4365 51.423 11.3507 51.4793 11.2643 51.5523C11.1804 51.6174 11.0979 51.6942 11.0681 51.8395C11.0532 51.916 11.1859 52.5544 10.984 52.7272C10.7836 52.8985 10.6143 53.1787 10.414 53.3562C10.531 53.3558 10.645 53.3479 10.7612 53.344C10.7484 53.4574 10.7334 53.5741 10.7184 53.6905C10.5846 53.6677 10.4507 53.6445 10.3165 53.6203C10.4202 53.7199 10.5214 53.8219 10.625 53.9254C9.92117 53.856 10.1829 53.7811 10.2494 54.1436C10.2816 54.3245 10.1241 54.4124 10.1336 54.5947C10.1368 54.6623 10.315 54.7687 10.3153 54.843C10.3137 55.0272 10.087 54.833 10.0508 54.9323C10.0155 55.0306 10.2443 55.2912 10.039 55.4217C9.61498 55.0207 9.54884 55.6172 9.91195 55.8357C9.88014 55.9029 9.83599 55.9516 9.8087 56.0304C8.88589 55.471 9.39495 56.1459 9.43145 56.366C9.4746 56.5783 9.2317 56.4182 9.22217 56.4546C9.19203 56.5592 9.33431 56.5609 9.29695 56.6253C9.28002 56.6538 9.26232 56.6814 9.24397 56.7082C9.03625 57.0124 8.68297 57.2531 8.41312 57.5676C8.37136 57.6162 8.53504 57.6736 8.47466 57.723C8.41366 57.7727 8.24202 57.7251 8.17858 57.8169C8.1612 57.8416 8.26383 57.9428 8.23282 57.9786C7.57592 58.7238 6.74521 59.2474 5.8735 59.7121C5.86515 59.7165 5.85679 59.7209 5.84841 59.7254C5.7811 59.7615 5.85585 60.0128 5.72254 60.0791C5.58925 60.1453 5.27377 60.0618 5.09775 60.143C5.051 60.1644 5.14538 60.3557 5.0831 60.385C4.87065 60.4847 4.60702 60.4354 4.37312 60.5305C3.9787 60.69 3.61907 61.0205 3.10744 61.0775C3.02891 61.0859 2.98281 60.9718 2.89211 60.9277C2.87186 60.9182 2.84938 60.9119 2.82363 60.9108C2.5806 60.8967 2.73706 61.1177 2.70139 61.1648C2.58297 61.3145 2.45198 60.9924 2.33961 61.1102C2.32188 61.1284 2.39813 61.3201 2.37988 61.3277C2.09171 61.4283 1.99103 60.9601 1.73962 61.2642C1.43448 61.0353 1.85368 60.8721 1.86773 60.7188C1.90336 60.351 1.5589 59.9922 1.39027 59.8817C1.24254 59.7875 1.27546 60.0055 1.22221 60.0131C0.943966 60.0539 0.524176 60.1355 0.307336 60.0408C0.177707 59.9847 0.400014 59.8805 0.33113 59.8115C0.264715 59.7428 0.231655 59.9107 0.161681 59.7318C0.0862274 59.5532 -0.0188682 59.0196 0.00322959 58.7645ZM9.99585 41.466C10.8034 41.8898 10.7511 42.9554 10.6478 43.6145C10.6402 43.6637 10.6326 43.71 10.6251 43.7534C10.5346 44.2769 9.84985 44.7127 10.8255 44.6351C10.8413 44.2756 10.8155 43.9589 10.8089 43.6212C10.8054 43.4163 10.8066 43.222 10.8257 42.9929C10.8313 42.932 10.9339 42.5543 10.9534 42.4277C10.9643 42.3551 11.1251 42.3547 11.1261 42.2536C11.1259 42.2312 10.919 42.1054 10.9256 42.0626C10.9482 41.9093 11.2778 41.4614 11.2688 41.3992C11.2432 41.2224 10.9927 41.2868 10.9481 41.2107C10.7996 40.9605 11.1749 40.9277 11.0523 40.6764C11.0303 40.6291 10.7028 40.4863 10.7426 40.2977C10.7594 40.2245 10.9254 40.0883 10.916 40.0312C10.865 39.7134 10.6271 39.3711 10.6455 39.0819C10.6602 38.8412 10.9161 38.8895 10.94 38.7579C10.963 38.6292 10.6573 38.5017 10.6318 38.4178C10.592 38.2851 10.7377 38.0988 10.73 38.056C10.6184 37.4333 10.4038 36.8956 10.238 36.333C10.1804 36.1384 10.1265 35.9417 10.0801 35.7397C10.0659 35.947 10.053 36.1541 10.0405 36.3611C10.0198 36.7124 10.0058 37.0615 9.98251 37.407C10.2861 37.6704 10.0216 37.5566 9.96909 37.7657C9.92644 37.9292 10.3709 37.9098 10.3475 38.1248C10.3475 38.1246 10.3474 38.1245 10.3474 38.1243C10.3349 38.2364 10.0556 38.4986 10.2023 38.7124C10.2078 38.7212 10.4389 38.7183 10.4602 38.8929C10.508 39.2751 10.6498 39.8751 10.6059 40.3114C10.5931 40.4398 10.3516 40.4208 10.3231 40.5687C10.3023 40.6792 10.526 40.8055 10.4756 40.9806C10.4112 41.1964 10.0262 41.3015 10.5576 41.4527C10.3671 41.4625 10.1815 41.454 9.99585 41.466ZM9.16501 53.3697C9.13549 53.3971 8.44668 53.5967 9.08764 53.6789C9.51994 53.2393 9.55272 52.6206 9.85141 52.1003C9.19339 52.1291 9.34663 52.5142 9.27763 52.9171C9.27758 52.9173 9.27753 52.9174 9.27748 52.9176C9.27427 52.9363 9.13859 52.8148 9.13722 52.926C9.13659 52.9802 9.32026 53.2473 9.16501 53.3697Z" fill="#FFFFFF"/>
<path d="M46.5346 61.1154C46.7123 61.3506 46.6329 61.2686 46.5795 61.263C46.5158 61.24 46.4236 61.2004 46.328 61.1602C46.1341 61.078 45.9132 60.9827 45.6929 60.8847C45.2482 60.6867 44.7898 60.4683 44.3351 60.226C43.9522 60.0234 43.593 59.7786 43.2715 59.5086C42.9602 59.2422 43.101 59.1367 42.9947 59.0138C42.8017 58.7882 42.3424 58.5885 42.2976 58.5418C42.0148 58.2588 42.3346 58.171 42.3049 58.1252C42.0032 57.6375 41.869 57.9696 41.5129 57.6302C41.4717 57.591 41.4309 57.5512 41.3907 57.5115C40.6809 56.7827 40.326 55.8681 40.0439 55.148C39.9378 54.8658 40.1849 54.9049 39.9482 54.3286C39.8459 54.0787 39.5505 53.5435 39.3573 53.0253C39.228 52.6791 39.1441 52.3318 39.1711 52.0676C39.2665 52.0347 39.3961 52.078 39.5054 52.0791C38.849 51.3323 38.7455 50.9882 38.6344 49.6358C38.621 49.4214 38.4219 49.236 38.4532 48.8505C38.4897 48.4711 38.7474 48.4267 38.727 47.7205C38.7202 47.475 38.5323 47.3255 38.5162 46.9836C38.5055 46.7711 38.5034 46.533 38.4946 46.2877C38.4367 45.0967 38.6061 43.7138 38.6478 43.0057C38.7509 41.5469 38.6009 40.6381 39.0124 39.2773C39.2223 38.5597 39.9881 38.0026 40.4514 37.8779C40.6532 37.8113 40.2981 38.1623 40.649 38.0381C40.9836 37.931 41.1998 37.6259 41.2655 37.606C41.835 37.4615 42.5354 37.5841 42.6747 37.5637C42.7906 37.5274 42.876 37.4934 42.9264 37.4571C43.4811 37.0351 42.8511 37.2595 43.6113 36.748C44.3168 36.2686 45.3194 35.8078 45.8717 35.0739C46.0617 34.8324 46.1682 34.5975 46.2484 34.3842C46.3463 34.0156 46.2604 33.8311 46.7215 33.386C46.8822 32.1792 46.8493 30.7313 46.8527 29.3367C46.8434 27.7356 46.7368 26.1006 46.5211 24.5289C46.6285 24.5231 46.7361 24.5188 46.8438 24.515C46.7925 24.4057 46.7401 24.2946 46.6874 24.1875C46.6328 24.0728 46.5784 23.9591 46.5238 23.8465C46.6081 23.8699 46.6922 23.8917 46.7757 23.9157C46.3076 22.853 45.9642 21.976 45.7101 20.7017C45.7051 20.6769 45.9288 20.6854 45.9287 20.6639C45.9082 20.5021 45.8258 20.3498 45.7486 20.1993C45.6844 20.0736 45.625 19.9514 45.6096 19.8319C45.5251 19.1969 45.6859 18.0125 45.2628 18.6291C45.1999 18.2987 45.1212 17.956 45.038 17.6072C44.7579 16.4325 44.3262 15.203 44.1395 14.0983C44.0514 13.5761 44.246 13.306 44.2773 13.0577C44.2831 13.0149 44.2837 12.973 44.277 12.9309C44.2304 12.6475 43.981 12.8565 43.9468 12.7609C43.7487 12.1841 43.4814 11.2519 43.7533 11.0509C43.5924 10.9748 43.4275 10.8949 43.2644 10.8211C43.4351 10.798 43.3637 10.4145 43.2103 9.9408C43.0617 9.4529 42.7531 8.93617 42.6326 8.7269C42.5927 8.65495 42.722 8.56368 42.6874 8.50946C42.3461 7.99049 42.0566 7.93533 41.6834 7.57057C41.6291 7.52122 41.5726 7.46606 41.5126 7.40183C41.362 7.24383 41.7912 7.354 41.3555 6.97061C41.314 6.9354 41.1442 7.11588 40.7081 6.56174C40.5319 6.33782 40.3023 6.06044 40.0489 5.73508C39.4451 4.93926 38.6271 4.18043 37.8805 3.47417C37.8426 3.4331 37.804 3.39407 37.7647 3.35646C37.7084 3.30866 38.0617 3.20813 37.7264 3.07332C37.5971 3.0311 37.5764 3.22461 37.283 3.10551C36.9974 2.99693 36.6457 2.90248 36.2366 2.80153C35.9726 2.72877 35.5827 2.69833 35.2072 2.71777C35.2452 2.70755 35.256 2.67577 35.1917 2.72488C35.1322 2.77069 35.0399 2.88117 34.9566 3.02235C34.7856 3.30846 34.6416 3.69715 34.527 4.11307C34.3589 3.9852 34.348 3.40861 34.1749 4.05095C34.1801 4.05355 34.1786 4.08129 34.1785 4.12438C34.1791 4.22599 34.3861 4.19301 34.3843 4.23807C34.3693 4.63909 34.2059 5.12378 34.2622 5.69421C34.2799 5.86672 34.432 5.9122 34.4644 6.12492C34.5135 6.44044 34.2937 6.57952 34.3859 6.94978C34.5329 7.53039 34.7405 7.61389 34.3447 8.34329C34.3653 9.25683 34.4008 10.1742 34.4382 11.0916C34.4559 11.5399 34.4631 11.9739 34.4836 12.3696C34.582 14.9916 34.574 17.4894 34.4959 20.0517C34.4881 20.2774 34.4795 20.5115 34.4698 20.7495C34.5883 21.9379 34.7196 23.0416 34.7649 24.2862C34.7781 24.6562 34.5007 24.7225 34.5929 25.3085C34.6132 25.4451 34.9111 26.3718 34.3505 26.5113C34.3988 26.7691 34.4004 26.9334 34.4302 27.158C34.5126 26.9877 34.5958 26.813 34.6788 26.6515C34.5893 27.5982 34.7865 28.3616 34.8793 29.1998C34.9472 29.8125 34.7072 29.3769 34.731 29.7536C34.754 30.1316 34.8078 30.3028 34.5192 30.7734C34.8508 31.1454 34.6175 31.3889 34.6072 32.0728C34.6063 32.1469 34.7342 32.5695 34.7076 32.9245C34.6885 33.1798 34.4811 33.2543 34.5121 33.6591C34.5168 33.7254 34.771 34.5822 34.7935 34.8546C34.8292 35.2789 34.5611 35.9529 34.5575 36.0344C34.5061 37.2277 34.7659 37.6866 34.33 38.533C34.5855 38.7043 34.7317 39.4154 34.7031 39.9828C34.6672 40.7083 34.1317 42.1447 34.6838 42.3505C34.4298 43.1793 34.5831 43.0924 34.5779 44.085C34.5745 44.9867 34.33 47.3736 34.3452 48.1057C34.3475 48.2097 34.3559 48.2905 34.3688 48.3542C34.4451 48.7551 34.681 48.5295 34.7111 48.78C34.7694 49.2469 34.5475 48.9963 34.5433 49.3221C34.5311 50.2481 34.552 51.0374 34.6151 51.9392C34.4537 51.9807 34.2913 52.025 34.1297 52.0665C34.1809 52.1144 34.2324 52.1572 34.2834 52.2089C34.2732 52.4064 34.2668 52.6115 34.2526 52.7931C35.0159 51.3422 34.1687 54.1973 33.9783 55.1766C33.9532 55.3156 33.9358 55.4615 33.895 55.6654C33.8729 55.767 33.8507 55.8835 33.7735 56.0653C33.7319 56.158 33.675 56.2742 33.5545 56.4157C33.4439 56.5549 33.2249 56.6947 33.2352 56.6932C32.9753 56.9552 32.6417 57.5935 32.2101 58.0755C32.054 58.2471 32.0519 58.0119 32.0201 58.0472C31.7062 58.3824 31.6425 58.5608 31.1795 58.8701C31.0914 58.9272 30.988 58.9874 30.8562 59.0529C30.4899 59.235 30.0203 59.1995 29.6607 59.3165C28.9885 59.538 28.374 59.6531 27.9841 59.8208C27.0425 60.1944 26.1233 60.3821 25.319 60.5783C24.2081 60.8243 23.1896 60.8135 22.177 60.7066C21.7282 60.6557 21.3961 60.3319 21.028 60.2478C20.8581 60.2087 20.702 60.1924 20.5416 60.1785C20.2311 60.1563 19.9359 60.1715 19.589 60.0433C19.0692 59.8616 18.4811 59.2429 18.1792 59.077C17.8649 58.909 18.2218 59.4621 17.7291 59.0318C17.5137 58.8352 18.0345 58.9858 17.7521 58.7716C17.6958 58.7284 17.6386 58.6851 17.58 58.6413C16.6445 58.0289 15.8697 56.6575 15.6435 55.9623C15.5739 55.7917 15.5196 55.6223 15.4819 55.4582C15.4521 55.5298 15.4365 55.6184 15.4165 55.7025C15.0944 54.9649 14.9685 54.3007 14.8106 53.7309C14.667 53.2337 14.5744 52.7573 14.472 52.2687C14.4116 51.9797 14.2483 51.5555 14.1287 51.1929C14.0693 51.0043 14.0245 50.8302 14.0039 50.6915C13.9403 50.2502 14.0981 50.0366 14.071 49.6983C14.061 49.5592 13.9075 49.6273 13.9028 49.5334C13.8561 48.4389 14.1004 47.8225 14.0471 46.8139C14.0433 46.7442 14.0384 46.6725 14.0323 46.599C13.8866 44.7735 13.8155 42.9604 13.7123 41.1368C13.6133 39.0698 13.5951 37.0404 13.5634 35.0134C13.5563 34.5125 13.5522 34.0129 13.5515 33.5144C13.5514 33.3373 13.3471 33.2141 13.3236 32.955C13.2875 32.556 13.4716 32.5426 13.4797 32.4897C13.5314 32.1454 13.3569 32.2806 13.374 31.8161C13.4104 30.7921 13.6485 29.1591 13.6935 28.154C13.6965 28.0858 13.6993 28.0178 13.7021 27.9499C13.6995 27.4317 14.05 26.7191 14.474 26.4033C14.8868 26.0697 15.2342 25.9576 15.5163 25.8621C16.0727 25.6904 16.5027 25.6253 16.7182 25.5402C17.3827 25.3087 17.9402 24.6895 18.8777 23.7479C18.9461 23.6802 19.0121 23.6136 19.0786 23.5454C19.179 23.4405 19.2785 23.6866 19.4629 23.5099C20.5479 22.4071 20.5864 22.0047 21.2966 20.5759C21.3728 20.4143 21.4244 20.2872 21.4828 20.0466C21.7133 19.0485 21.7361 16.7628 21.8001 14.6832C21.8475 13.6466 21.6305 12.9683 21.3591 11.6821C21.2777 11.1793 21.253 10.7697 21.2272 10.3862C21.2277 10.3861 21.2283 10.3861 21.2289 10.3861C20.7996 9.6229 20.7772 8.67736 20.9178 7.86822C20.9488 7.6875 20.9871 7.50676 21.0318 7.32933C21.0858 7.50261 21.1364 7.67519 21.1831 7.84726C21.503 9.02071 21.633 10.2508 21.9421 11.5756C22.3064 12.7726 22.6216 13.6069 22.6192 14.6834C22.5899 16.7941 22.8474 19.2648 22.1435 20.9893C21.7026 21.8756 21.2342 22.6848 20.602 23.4233C20.2853 23.7982 19.938 24.1589 19.5701 24.5105C18.7101 25.3387 17.983 26.1677 16.9868 26.4984C16.6449 26.616 16.2175 26.6842 15.7769 26.8381C15.5565 26.918 15.3196 27.0179 15.1028 27.2144C14.8819 27.4053 14.7429 27.7346 14.7486 28.0092C14.7486 30.344 14.7852 32.6985 14.8565 35.0261C14.9056 36.7334 14.9213 38.4339 14.9087 40.1073C14.9061 40.5509 14.7716 40.8045 14.7263 41.1069C14.7097 41.2215 14.7049 41.3379 14.7235 41.4778C14.7351 41.5639 14.9276 41.3348 14.9554 41.5994C15.1319 43.2822 15.1271 45.0199 15.171 46.7475C15.2098 48.1686 15.1511 49.587 15.399 50.9426C15.5115 51.5363 15.6337 52.1228 15.807 52.6833C15.8878 52.9433 15.9744 53.1327 16.0623 53.2856C16.2905 53.6869 16.4798 53.8993 16.7199 54.4412C16.5715 54.3417 16.4362 54.2862 16.294 54.1972C16.3979 54.6157 16.5225 55.0287 16.6967 55.4258C17.0518 56.2831 17.4003 57.2327 18.1979 57.8326C18.949 58.4585 19.8666 58.9209 20.8197 59.1666C22.2126 59.506 23.6535 59.6571 25.0958 59.4217C25.2417 59.3948 25.3881 59.3689 25.535 59.3429C25.7105 59.3121 25.7736 59.5212 25.9607 59.4926C26.3367 59.4357 26.6419 59.123 26.956 59.0274C27.2801 58.9273 27.425 58.9879 27.6598 58.9451C27.7177 58.9352 27.7809 58.9194 27.8559 58.8926C28.0284 58.8333 27.926 58.6865 28.3334 58.6078C28.368 58.6012 28.4316 58.7651 28.6972 58.6726C29.1692 58.5174 29.9638 58.168 30.5318 57.7531C30.8589 57.5234 31.0902 57.2658 31.2433 57.1014C31.7783 56.4935 32.4083 56.219 32.643 56.0901C32.7039 56.0518 32.7581 56.0179 32.8066 55.9875C32.8786 55.9567 33.016 55.8079 33.0377 55.7327C33.0733 55.6506 33.0856 55.5831 33.0923 55.5265C33.1049 55.4118 33.0963 55.3153 33.085 55.2294C33.0627 55.0492 33.0342 54.8763 33.0693 54.5621C33.2681 52.465 33.3476 50.412 33.4594 48.3365C33.5974 45.5506 33.7214 42.7505 33.739 39.8431C33.741 39.527 33.4488 38.3473 33.4635 37.7602C33.4694 37.5633 33.553 36.5328 33.56 36.3782C33.5876 35.7515 33.7702 35.2105 33.8093 34.8653C33.8856 34.1955 33.6054 33.4454 33.5781 33.081C33.5297 32.4398 33.569 31.3031 33.5766 31.0341C33.5954 30.3836 33.9442 30.6 33.8633 30.1341C33.8392 29.996 33.5714 30.1395 33.5719 29.6543C33.5733 29.2495 33.775 29.0838 33.8115 28.8061C33.8478 28.5293 33.5364 28.0199 33.5442 27.8464C33.5882 26.9461 33.7925 26.5395 33.8027 25.5603C33.8111 24.7373 33.6634 20.9687 33.5888 20.6499C33.2578 19.2411 33.4099 21.5866 33.3988 21.7165C33.3362 22.437 33.2102 22.3202 33.4514 23.0407C32.7111 23.6786 33.8666 25.8929 32.9872 26.4662C33.5728 27.0497 33.2774 27.5463 33.1593 28.1668C32.996 29.0219 33.3377 28.3698 33.3396 28.9952C33.3401 29.2448 33.0733 29.9534 33.1099 30.3251C33.1466 30.6934 33.3503 30.8512 33.3608 31.3463C33.3801 32.2304 33.2833 32.9434 33.0369 33.6852C33.1446 33.8215 33.2524 33.9489 33.36 34.0836C33.2424 34.5965 33.1252 35.1106 33.008 35.6236C33.1027 35.542 33.1982 35.4602 33.2928 35.3784C33.306 35.5286 33.3184 35.6792 33.3307 35.8292C33.1869 36.3273 33.0535 36.8035 32.9043 37.316C33.4435 38.7095 32.9729 38.3081 32.8977 39.0789C32.8223 39.8547 33.1353 40.306 33.1328 40.9009C33.1293 41.7104 33.1658 42.0803 33.136 42.8909C33.1189 43.3657 32.8059 44.156 33.2955 43.5067C33.3203 44.9771 33.4292 47.0013 33.2071 48.3045C33.2055 48.3141 33.2038 48.3231 33.2021 48.3315C33.1605 48.5437 33.0928 48.4301 33.0426 48.3284C33.0118 48.2695 32.9875 48.2145 32.9801 48.2384C32.9712 48.2683 32.9652 48.2978 32.9616 48.3268C32.9265 48.6297 33.1213 48.8707 33.082 49.1895C33.0112 49.7482 32.7879 50.8479 32.7262 51.2849C32.64 51.923 32.9101 52.9313 32.9259 53.0398C33.0221 53.623 32.7446 53.7464 32.7483 53.9374C32.7752 54.9494 32.795 55.3249 32.2122 55.2933C32.2338 55.3072 32.2547 55.3209 32.2927 55.3132C32.3161 55.3118 32.4506 55.2484 32.399 55.3163C32.0419 55.7734 31.6779 56.4561 31.2873 56.3861C31.5302 56.6358 30.9108 57.263 30.4496 57.6113C30.4343 57.6231 30.4195 57.6348 30.4051 57.6463C30.2597 57.6066 30.1137 57.5651 29.9745 57.5155C29.5895 58.1543 28.5589 58.3984 27.5515 58.6528C26.7042 58.9073 25.7977 58.9297 25.0677 59.0351C25.0563 59.0369 25.0466 59.0614 25.0328 59.0951C25.0015 59.1785 24.9386 59.3215 24.7619 59.3011C24.7463 59.2978 24.7535 59.1733 24.5958 59.1755C24.0631 59.2396 22.123 58.7746 21.9164 58.7027C21.4445 58.6183 21.191 58.6255 20.9675 58.629C20.8013 58.6283 20.6467 58.6254 20.4458 58.5666C19.8127 58.3659 19.8072 58.1594 19.273 57.8809C19.0506 57.7569 18.736 57.7838 18.4111 57.5534C18.3771 57.5293 18.3449 57.503 18.3124 57.4718C18.121 57.2822 18.2396 57.1245 18.1193 56.9718C17.7041 56.4163 17.4187 55.9527 17.3034 55.1646C17.2608 55.171 17.2222 55.1747 17.1871 55.176C16.708 55.2135 16.9344 54.761 16.8684 54.4605C16.7749 54.0532 16.6557 53.6043 16.4849 53.1353C16.2229 52.4126 15.9947 51.5808 15.8365 50.8564C15.7931 50.6558 15.763 50.4592 15.7463 50.2734C15.6434 49.0872 15.7065 47.9097 15.7178 46.7153C15.7438 44.8425 15.8657 42.9885 15.8905 41.0725C15.9005 40.5088 15.9165 39.9244 15.9276 39.3322C15.9397 38.7267 15.6335 38.5796 15.6549 37.9414C15.665 37.6544 15.8884 37.3602 15.895 36.8903C15.9009 36.5127 15.7928 35.9715 15.7982 35.4986C15.7994 35.3721 16.0077 35.3629 16.0111 35.1791C16.012 35.1308 16.0127 35.0835 16.0132 35.0374C16.0276 33.6981 15.9227 32.3864 15.8861 31.0241C15.8719 30.5015 16.1643 30.1928 15.6804 30.2571C15.808 30.0636 15.9205 29.8749 16.0464 29.6939C15.8494 29.1458 15.9939 28.6884 16.0706 28.0842C16.1026 28.0819 16.0142 28.2748 15.9799 28.2547C15.9694 28.2592 15.9391 28.16 16.093 28.0512C16.2364 27.9461 16.4981 27.8707 16.7255 27.949C16.7222 27.7755 16.6307 27.6454 16.6133 27.491C16.7779 27.4307 16.9937 27.4114 17.2335 27.3785C17.5591 27.3358 17.8865 27.2701 18.0579 27.1966C18.3557 27.0691 18.4097 26.7648 18.4822 26.7154C18.7609 26.5198 18.8652 26.7968 18.8904 26.7864C20.1845 26.0797 20.0676 25.9624 20.3034 25.3182C20.3362 25.2316 20.3698 25.1385 20.4129 25.0301C20.5128 24.8196 21.8342 23.857 21.7229 23.3668C21.8457 23.4381 21.8929 23.5836 21.9852 23.685C22.3077 23.3145 22.6058 22.9116 22.8723 22.5024C22.7038 22.5275 22.5252 22.5672 22.3612 22.5773C22.6567 22.1884 22.8092 21.7704 22.9321 21.3741C23.0713 20.9485 23.0987 20.5315 23.1629 20.1451C23.2312 19.7044 23.5165 19.7849 23.4756 19.5127C23.4666 19.4608 23.2587 19.5318 23.2535 19.3794C23.1933 18.1447 23.3951 17.6124 23.4449 16.3884C23.4644 15.8607 23.1569 15.3954 23.2927 14.6835C23.305 14.6172 23.3203 14.5529 23.3389 14.4817C23.367 14.4192 23.6499 13.523 23.0816 13.1026C23.1969 12.9179 23.241 12.7597 23.3333 12.6114C22.6612 12.0089 22.8452 11.9016 22.9702 11.3879C23.0197 11.2022 23.0673 10.9607 23.078 10.6014C23.0841 10.1105 22.9885 8.75081 22.8527 7.71537C22.7982 7.31422 22.7365 6.97327 22.6919 6.7594C22.5948 6.30472 22.3234 6.34702 22.3031 6.26681C22.1816 5.78929 22.443 5.75604 22.3453 5.31418C22.336 5.27173 22.3241 5.22841 22.3105 5.18464C22.3103 5.18238 22.3092 5.17564 22.3089 5.17339C22.1608 4.76493 21.8386 4.30485 21.7946 3.8868C21.7574 3.53255 22.1273 3.75554 21.9291 3.25628C21.8871 3.15302 21.662 3.50482 21.6805 2.94055C21.6806 2.93705 21.6809 2.93226 21.6815 2.92627C21.7007 2.78181 21.8377 1.91874 21.8662 1.73473C21.993 1.9476 22.1747 2.38057 22.3295 2.82639C22.4901 3.26103 22.6407 3.70954 22.7176 3.9551C22.8273 4.30491 22.9377 4.67026 23.0485 5.05013C23.0498 5.0593 23.0541 5.08671 23.055 5.09592C23.2419 5.86406 23.4485 6.71188 23.6033 7.65608C23.8012 8.84605 23.8944 10.1766 24.135 11.1751C24.3498 11.8394 24.8687 13.411 24.8645 14.6838C24.9099 15.7568 24.9532 16.8526 24.9686 17.9924C24.932 19.1263 25.1476 20.3455 24.3895 22.0853C23.7673 23.5656 22.5528 25.2996 21.2906 26.4057C20.5301 27.097 19.4166 28.358 17.647 28.8537C16.9909 29.0259 16.6087 29.0665 16.4566 29.1211C16.389 29.1359 16.4254 29.1625 16.6312 28.9951C16.8483 28.8418 17.0701 28.343 17.0547 28.14C16.8986 30.7105 16.7796 33.031 16.7343 35.0445C16.7282 35.2905 16.722 35.5323 16.7159 35.7682C16.6939 36.6329 16.4028 37.1948 16.3752 37.757C16.3479 38.3189 16.6127 37.845 16.5895 38.354C16.5659 38.8621 16.3806 39.2334 16.3675 39.7059C16.355 40.1615 16.3445 40.6182 16.3416 41.0592C16.3378 42.9515 16.2986 44.8532 16.3551 46.6777C16.3859 47.5986 16.39 48.4705 16.4445 49.3032C16.4799 49.8401 16.6323 50.2767 16.7732 50.6719C16.845 50.888 16.9094 51.1032 16.9561 51.3262C17.0139 51.6004 16.7467 51.6671 16.7928 51.859C16.8851 52.2415 16.9938 52.6018 17.1215 52.9088C17.4241 53.6769 17.6517 54.2941 17.9566 54.784C18.497 55.7816 18.7289 56.2086 19.181 56.5455C19.248 56.5971 19.3134 56.6473 19.3774 56.6958C19.9481 57.1397 20.4319 57.5783 21.1858 57.8347C21.2381 57.8535 21.2995 57.8722 21.3582 57.888C21.9964 58.0569 22.7513 57.9908 23.3425 58.0124C23.6648 58.0233 23.8333 58.2283 23.9519 58.2422C24.3582 58.2805 24.2005 58.0288 24.3936 58.0133C24.5612 57.997 24.6989 58.0081 24.8266 58.0265C25.1951 58.0472 25.4996 58.1343 25.8881 58.0374C26.109 57.9804 26.042 57.7951 26.3397 57.6916C26.7079 57.5558 26.6165 57.7686 26.8825 57.695C26.8979 57.6907 26.8064 57.5727 26.9378 57.5233C26.9946 57.5016 27.0513 57.4787 27.1077 57.4545C28.3652 57.0041 29.079 56.8182 29.7441 56.3946C29.7672 56.381 29.7917 56.3659 29.8175 56.3493C30.266 56.098 30.8086 55.3183 31.9773 54.622C32.0607 54.5734 31.857 54.6996 31.7757 54.8064C31.6837 54.9152 31.654 54.9867 31.6393 55.0219C31.6132 55.0933 31.6316 55.0735 31.6432 55.046C31.6715 54.9815 31.7051 54.8594 31.7338 54.7373C31.7929 54.4815 31.842 54.2015 31.8859 53.9158C31.9733 53.3393 32.0372 52.7639 32.0786 52.1854C32.1133 51.6831 31.9232 51.8089 31.921 51.6443C31.908 50.8723 32.1361 50.6049 32.0789 49.7899C32.0696 49.6492 31.8286 49.095 31.9034 48.5853C31.9162 48.4963 31.9414 48.4026 31.9713 48.3075C32.0357 48.1136 32.1218 47.9137 32.1501 47.7471C32.1915 47.501 31.958 47.4693 31.9626 47.1786C31.9702 46.6412 32.13 46.8155 32.1117 46.0534C32.1046 45.758 31.8958 44.7322 31.9205 43.9584C31.9613 42.6824 32.1764 41.1027 32.1887 39.5989C32.1935 39.0815 31.9569 38.4173 31.9583 37.618C31.96 36.6396 32.0213 34.8373 32.0272 33.8344C32.0302 33.3216 32.2821 33.2854 32.2928 33.2244C32.3638 32.8323 32.082 32.9898 32.0938 32.7268C32.1099 32.3659 32.3182 32.0297 32.3325 31.7013C32.3417 31.4921 32.1343 31.4587 32.1328 31.4134C32.0672 29.7382 32.0878 28.2498 32.0653 26.5855C32.0363 24.412 31.9964 22.2291 31.9528 20.0574C31.8958 17.5241 31.8666 14.92 31.7638 12.4853C31.7388 12.0059 31.7315 11.5775 31.7142 11.1719C31.6903 8.5637 31.2614 6.69969 31.927 3.16395C32.1099 2.70939 32.3045 2.21156 32.6457 1.64597C32.9795 1.1415 33.5482 0.201268 34.9572 0.0281372C35.4905 -0.014177 36.0215 -0.0207502 36.6521 0.090371C36.7015 0.0994587 36.7503 0.10975 36.7971 0.120941C37.4791 0.303436 37.4979 0.5237 38.2758 0.770245C38.7234 0.925004 39.2785 1.03613 39.7224 1.3463C39.9581 1.48651 40.1504 1.69925 40.1591 2.08983C40.2569 2.00849 40.3154 1.94044 40.406 1.86789C41.0405 2.57978 41.7341 3.29765 42.3297 4.02254C42.6232 4.37076 42.9509 4.72444 43.2773 5.12979C43.5096 5.41852 43.7369 5.71951 43.9508 6.03858C44.2275 6.44697 44.6469 7.02943 44.973 7.65484C45.3852 8.47667 45.1857 8.54014 45.6147 9.09528C45.6421 9.12791 45.6725 9.16273 45.7065 9.20051C46.0268 10.2363 46.3512 11.4331 46.5654 12.5359C46.8544 13.9712 47.239 15.4725 47.5374 16.9933C47.693 17.8001 47.8769 18.6246 48.0375 19.4735C48.0601 19.4954 48.0819 19.5177 48.1029 19.5405C48.7055 20.2036 48.646 21.0446 48.8026 22.1727C48.8214 22.3176 48.9616 22.1307 49.0259 22.5604C49.0894 22.9997 48.9572 23.2951 48.9816 23.8526C48.9878 23.9839 49.0013 24.1302 49.0251 24.2958C49.0706 24.5323 49.5279 26.2604 49.4052 26.9185C49.2952 27.5739 49.2375 28.5122 49.0936 29.1845C49.2058 29.0891 49.3125 28.9672 49.422 28.8592C49.4328 29.0217 49.4424 29.1855 49.4508 29.3492C49.4598 29.5224 49.4687 29.6879 49.4775 29.8593C49.3424 29.9059 49.2072 29.9505 49.0714 29.9959C49.1981 30.1887 49.3228 30.3804 49.4502 30.5731C48.7514 30.9825 48.9876 30.5523 49.1412 31.4888C49.2148 31.9593 49.0804 32.3306 49.1121 32.8384C49.1231 33.0236 49.3156 33.1586 49.3171 33.3752C49.3112 33.9095 49.0755 33.5629 49.0243 33.8902C48.9673 34.2081 49.1656 34.8319 48.7116 35.4481C48.6287 35.0323 48.4389 35.2396 48.2634 35.5579C48.095 35.8684 47.948 36.3898 48.1121 36.5588C47.9967 36.7325 47.8806 36.8679 47.7475 37.0648C47.0171 36.2535 46.9788 37.5516 46.721 37.9802C46.4942 38.3985 46.3091 38.1639 46.2405 38.2402C46.034 38.4546 46.2766 38.4094 46.1162 38.545C45.379 39.153 44.5764 39.5182 43.7954 39.842C43.2497 40.0761 42.7806 40.1284 42.3787 40.1886C42.1987 40.2134 42.3787 40.3522 42.1733 40.3658C41.9758 40.3783 41.7668 40.2402 41.5674 40.2948C41.5175 40.3091 41.5331 40.453 41.4856 40.4675C41.4294 40.4833 41.4229 40.4978 41.4803 40.4554C41.5365 40.418 41.6359 40.288 41.6598 40.1986C41.15 41.8015 41.0154 44.0477 41.133 46.0375C41.1423 46.1455 41.1498 46.2519 41.1558 46.3578C41.17 46.6147 41.4337 46.8181 41.4321 47.2834C41.4291 47.7481 41.2104 48.3795 41.2509 48.8936C41.261 49.0289 41.4763 49.04 41.4947 49.2153C41.5604 49.8105 41.507 50.3673 41.6609 51.0123C41.7478 51.3733 41.8684 51.7354 42.0035 52.098C42.2863 52.8553 42.5783 53.6113 42.7924 54.3194C42.855 54.5182 42.6771 54.5626 42.7629 54.8517C42.9202 55.3369 43.06 55.0356 43.1357 55.1016C43.3664 55.2757 43.1836 55.517 43.3621 55.6699C43.38 55.6856 43.3997 55.701 43.4218 55.7158C43.4711 55.7489 43.5646 55.5496 43.6023 55.5855C44.1601 56.1341 43.8244 56.5026 44.5504 56.8369C44.8623 57.4833 43.9683 56.8116 43.7786 56.803C43.3133 56.829 43.5621 57.708 43.8863 58.1419C44.1597 58.5121 44.2978 58.3279 44.4382 58.4284C44.6235 58.5562 44.8405 58.6876 45.0761 58.8079C45.7565 59.1544 46.5153 59.5556 46.8904 59.8711C47.1873 60.1208 46.546 59.8482 46.6786 60.0108C46.8073 60.1698 47.0042 60.0939 47.0599 60.3464C47.0838 60.4695 47.0971 60.7002 46.9911 60.8592C46.906 61.0492 46.5658 60.9528 46.5346 61.1154ZM34.2967 3.24866C34.2304 2.78377 34.2635 1.90979 35.106 1.62842C35.5331 1.53086 36.0078 1.48379 36.4966 1.55806C37.2957 1.67405 38.1779 1.92093 38.755 2.46387C39.0321 2.71589 39.2908 2.956 39.5085 3.17544C40.2333 3.89499 40.5744 4.79446 40.8742 5.11542C41.0506 5.3041 41.2218 5.30028 41.4301 4.99281C41.382 4.92964 41.3345 4.86709 41.2877 4.80494C40.5625 3.82976 39.7355 3.09873 38.8411 2.36449C38.5078 2.0802 38.1053 1.86488 37.6733 1.70664C37.5489 1.65308 36.9944 1.45431 36.5434 1.3344C36.3016 1.26867 36.0848 1.23963 35.9496 1.22679C35.7143 1.20828 35.7074 1.04471 35.3799 1.05706C35.3396 1.05915 35.1998 1.13395 35.0665 1.20436C34.9216 1.26127 34.7991 1.33903 34.7259 1.36498C34.0159 1.51151 33.0861 2.78439 33.0349 2.95307C32.8477 3.46622 33.1632 3.36563 33.1198 3.59376C33.1174 3.60668 33.115 3.61934 33.1125 3.63174C33.0146 4.4943 32.7212 4.49285 32.7838 5.2667C32.7992 5.40273 33.1087 5.85995 33.061 6.40779C33.0406 6.63097 32.8712 7.01505 32.88 7.18568C32.9263 8.12323 33.1725 9.15913 33.1581 10.0133C33.1464 10.7133 32.8893 10.5336 32.866 10.9036C32.8615 10.9803 32.8707 11.059 32.8883 11.1373C32.9567 11.4396 33.1492 11.7622 33.1674 11.9633C33.1804 12.112 33.1683 12.2733 33.1504 12.4263C33.1217 12.688 33.06 12.9064 33.0634 12.9866C33.1508 15.4467 33.3407 17.6558 33.418 20.0417C33.5295 18.4213 33.6307 16.797 33.7398 15.1884C33.472 14.2717 33.7205 14.7272 33.7966 14.1266C33.8557 13.6437 33.4137 13.5367 33.4497 12.9108C33.4497 12.9113 33.4497 12.9119 33.4497 12.9124C33.4565 12.7909 33.4999 12.6155 33.5403 12.4097C33.6111 12.0673 33.6977 11.6318 33.6063 11.1983C33.6039 11.1881 33.5617 11.1721 33.5118 11.1189C33.443 11.0474 33.3596 10.9034 33.3463 10.6046C33.2953 9.45046 33.1334 7.67815 33.1983 6.37435C33.2181 5.99216 33.457 6.07328 33.4993 5.62614C33.5326 5.30251 33.3202 4.90888 33.4257 4.40398C33.4789 4.16239 33.5926 3.95878 33.685 3.85764C33.8559 3.6291 33.9449 3.44343 33.7622 3.06656C33.9503 3.11322 34.1114 3.20716 34.2967 3.24866ZM47.8944 30.2723C47.8747 30.3658 47.2568 31.565 47.8989 31.2199C48.0155 30.6106 48.0656 29.9848 48.0933 29.3427C48.1392 28.2667 48.0769 27.1676 48.0893 26.0789C47.5086 26.715 47.8213 27.6768 47.8784 28.8838C47.8784 28.8843 47.8784 28.8848 47.8784 28.8853C47.881 28.9419 47.7151 28.7067 47.7471 29.0282C47.7525 29.0841 47.7887 29.197 47.8265 29.3414C47.8941 29.6037 47.9695 29.9622 47.8944 30.2723Z" fill="#FFFFFF"/>
<path d="M65.7935 6.65787L65.4095 6.76187C65.2815 6.80454 65.1828 6.86587 65.1135 6.94587C65.0441 7.02054 65.0095 7.12187 65.0095 7.24987V15.3939C65.0095 15.6019 65.0655 15.7512 65.1775 15.8419C65.2895 15.9272 65.4521 15.9699 65.6655 15.9699H66.6415C66.9295 15.9699 67.1801 15.9299 67.3935 15.8499C67.6068 15.7645 67.8041 15.6152 67.9855 15.4019C68.1721 15.1885 68.3588 14.8792 68.5455 14.4739L69.0655 13.3459C69.1401 13.1912 69.2335 13.0872 69.3455 13.0339C69.4575 12.9805 69.5881 12.9752 69.7375 13.0179C69.8868 13.0605 69.9908 13.1325 70.0495 13.2339C70.1135 13.3352 70.1215 13.4739 70.0735 13.6499L69.3135 16.4979C69.2441 16.7432 69.1561 16.9219 69.0495 17.0339C68.9481 17.1512 68.7935 17.2099 68.5855 17.2099C68.4575 17.2099 68.3321 17.1859 68.2095 17.1379C68.0921 17.0899 67.9561 17.0419 67.8015 16.9939C67.6521 16.9459 67.4681 16.9219 67.2495 16.9219H61.3375C61.1455 16.9219 61.0015 16.8819 60.9055 16.8019C60.8148 16.7219 60.7695 16.6125 60.7695 16.4739C60.7695 16.2392 60.8921 16.0765 61.1375 15.9859L61.5215 15.8819C61.6548 15.8392 61.7535 15.7805 61.8175 15.7059C61.8868 15.6259 61.9215 15.5219 61.9215 15.3939V7.24987C61.9215 7.12187 61.8868 7.02054 61.8175 6.94587C61.7535 6.86587 61.6548 6.80454 61.5215 6.76187L61.1375 6.65787C60.8921 6.56721 60.7695 6.40454 60.7695 6.16987C60.7695 6.02587 60.8148 5.91654 60.9055 5.84187C61.0015 5.76187 61.1455 5.72187 61.3375 5.72187H65.5935C65.7908 5.72187 65.9348 5.76187 66.0255 5.84187C66.1215 5.91654 66.1695 6.02587 66.1695 6.16987C66.1695 6.40454 66.0441 6.56721 65.7935 6.65787ZM78.6008 12.1459C78.6008 12.4659 78.5102 12.7139 78.3288 12.8899C78.1528 13.0659 77.8968 13.1539 77.5608 13.1539H72.6888V12.4419H75.3928C75.6702 12.4419 75.8088 12.3139 75.8088 12.0579C75.8088 11.3592 75.7048 10.8472 75.4968 10.5219C75.2942 10.1912 75.0222 10.0259 74.6808 10.0259C74.4195 10.0259 74.1875 10.1112 73.9848 10.2819C73.7875 10.4525 73.6302 10.7059 73.5128 11.0419C73.3955 11.3725 73.3368 11.7805 73.3368 12.2659C73.3368 13.2739 73.5662 14.0205 74.0248 14.5059C74.4888 14.9859 75.1102 15.2259 75.8888 15.2259C76.3048 15.2259 76.6755 15.1565 77.0008 15.0179C77.3262 14.8792 77.6035 14.6605 77.8328 14.3619C77.9555 14.2445 78.0488 14.1645 78.1128 14.1219C78.1822 14.0792 78.2488 14.0579 78.3128 14.0579C78.4035 14.0579 78.4702 14.1032 78.5128 14.1939C78.5608 14.2792 78.5848 14.3859 78.5848 14.5139C78.5688 14.9832 78.4062 15.4179 78.0968 15.8179C77.7875 16.2125 77.3635 16.5299 76.8248 16.7699C76.2862 17.0099 75.6622 17.1299 74.9528 17.1299C74.1635 17.1299 73.4568 16.9699 72.8328 16.6499C72.2142 16.3299 71.7262 15.8845 71.3688 15.3139C71.0115 14.7379 70.8328 14.0659 70.8328 13.2979C70.8328 12.4605 70.9982 11.7272 71.3288 11.0979C71.6648 10.4632 72.1475 9.96987 72.7768 9.61787C73.4115 9.26054 74.1715 9.08187 75.0568 9.08187C75.8195 9.08187 76.4648 9.21254 76.9928 9.47387C77.5208 9.73521 77.9208 10.0979 78.1928 10.5619C78.4648 11.0205 78.6008 11.5485 78.6008 12.1459ZM83.0716 9.92987C82.7303 9.92987 82.4689 10.0099 82.2876 10.1699C82.1063 10.3299 82.0156 10.5272 82.0156 10.7619C82.0156 10.9059 82.0449 11.0392 82.1036 11.1619C82.1676 11.2845 82.2929 11.3965 82.4796 11.4979C82.6716 11.5939 82.9569 11.6819 83.3356 11.7619C84.2369 11.9325 84.9276 12.1512 85.4076 12.4179C85.8876 12.6792 86.2183 12.9885 86.3996 13.3459C86.5809 13.6979 86.6716 14.0952 86.6716 14.5379C86.6716 15.3379 86.3889 15.9699 85.8236 16.4339C85.2636 16.8979 84.4423 17.1299 83.3596 17.1299C82.9809 17.1299 82.6743 17.0979 82.4396 17.0339C82.2103 16.9752 82.0236 16.9165 81.8796 16.8579C81.7356 16.7939 81.6076 16.7619 81.4956 16.7619C81.3729 16.7619 81.2716 16.7939 81.1916 16.8579C81.1116 16.9165 81.0316 16.9752 80.9516 17.0339C80.8769 17.0979 80.7809 17.1299 80.6636 17.1299C80.5569 17.1299 80.4743 17.0979 80.4156 17.0339C80.3569 16.9699 80.3036 16.8552 80.2556 16.6899L79.7836 15.1539C79.7143 14.9245 79.6929 14.7405 79.7196 14.6019C79.7516 14.4632 79.8369 14.3672 79.9756 14.3139C80.1196 14.2605 80.2449 14.2605 80.3516 14.3139C80.4583 14.3619 80.5596 14.4605 80.6556 14.6099C80.9009 14.9992 81.1569 15.3192 81.4236 15.5699C81.6956 15.8152 81.9783 15.9965 82.2716 16.1139C82.5703 16.2259 82.8769 16.2819 83.1916 16.2819C83.5969 16.2819 83.9009 16.2019 84.1036 16.0419C84.3063 15.8765 84.4076 15.6605 84.4076 15.3939C84.4076 15.2285 84.3649 15.0845 84.2796 14.9619C84.1943 14.8339 84.0316 14.7165 83.7916 14.6099C83.5516 14.5032 83.1943 14.4019 82.7196 14.3059C81.9943 14.1619 81.4156 13.9672 80.9836 13.7219C80.5516 13.4712 80.2423 13.1672 80.0556 12.8099C79.8743 12.4525 79.7836 12.0365 79.7836 11.5619C79.7836 11.0605 79.9143 10.6259 80.1756 10.2579C80.4369 9.88454 80.7996 9.59654 81.2636 9.39387C81.7276 9.18587 82.2583 9.08187 82.8556 9.08187C83.2449 9.08187 83.5543 9.11387 83.7836 9.17787C84.0183 9.24187 84.2076 9.30854 84.3516 9.37787C84.5009 9.44187 84.6396 9.47387 84.7676 9.47387C84.9009 9.47387 85.0103 9.44187 85.0956 9.37787C85.1863 9.30854 85.2743 9.24187 85.3596 9.17787C85.4449 9.11387 85.5436 9.08187 85.6556 9.08187C85.7569 9.08187 85.8396 9.11654 85.9036 9.18587C85.9729 9.25521 86.0209 9.37521 86.0476 9.54587L86.3676 11.0099C86.4103 11.2392 86.4156 11.4152 86.3836 11.5379C86.3569 11.6605 86.2769 11.7485 86.1436 11.8019C86.0049 11.8605 85.8823 11.8579 85.7756 11.7939C85.6689 11.7299 85.5596 11.6152 85.4476 11.4499C85.0956 10.8899 84.7116 10.4979 84.2956 10.2739C83.8849 10.0445 83.4769 9.92987 83.0716 9.92987ZM62.9935 25.7219H68.5375C68.7561 25.7219 68.9401 25.7005 69.0895 25.6579C69.2388 25.6099 69.3721 25.5645 69.4895 25.5219C69.6068 25.4739 69.7268 25.4499 69.8495 25.4499C70.0628 25.4499 70.2228 25.5032 70.3295 25.6099C70.4415 25.7112 70.5295 25.8845 70.5935 26.1299L71.1135 28.7699C71.1508 28.9512 71.1375 29.0979 71.0735 29.2099C71.0095 29.3219 70.9001 29.3912 70.7455 29.4179C70.6015 29.4499 70.4735 29.4419 70.3615 29.3939C70.2548 29.3405 70.1641 29.2365 70.0895 29.0819C69.7908 28.4472 69.5348 27.9619 69.3215 27.6259C69.1081 27.2845 68.9001 27.0499 68.6975 26.9219C68.4948 26.7885 68.2628 26.7219 68.0015 26.7219H67.3055V35.3939C67.3055 35.5219 67.3401 35.6259 67.4095 35.7059C67.4788 35.7805 67.5801 35.8392 67.7135 35.8819L68.0975 35.9859C68.3428 36.0765 68.4655 36.2392 68.4655 36.4739C68.4655 36.7725 68.2735 36.9219 67.8895 36.9219H63.6335C63.4415 36.9219 63.2975 36.8819 63.2015 36.8019C63.1108 36.7219 63.0655 36.6125 63.0655 36.4739C63.0655 36.2392 63.1881 36.0765 63.4335 35.9859L63.8175 35.8819C63.9508 35.8392 64.0495 35.7805 64.1135 35.7059C64.1828 35.6259 64.2175 35.5219 64.2175 35.3939V26.7219H63.5295C63.2681 26.7219 63.0361 26.7885 62.8335 26.9219C62.6308 27.0499 62.4228 27.2845 62.2095 27.6259C61.9961 27.9619 61.7375 28.4472 61.4335 29.0819C61.3588 29.2365 61.2655 29.3405 61.1535 29.3939C61.0468 29.4419 60.9215 29.4499 60.7775 29.4179C60.6281 29.3912 60.5215 29.3219 60.4575 29.2099C60.3935 29.0979 60.3775 28.9512 60.4095 28.7699L60.9375 26.1299C61.0015 25.8845 61.0868 25.7112 61.1935 25.6099C61.3001 25.5032 61.4601 25.4499 61.6735 25.4499C61.8015 25.4499 61.9241 25.4739 62.0415 25.5219C62.1588 25.5645 62.2921 25.6099 62.4415 25.6579C62.5908 25.7005 62.7748 25.7219 62.9935 25.7219ZM74.9592 32.6179C74.9592 31.8285 75.0659 31.1725 75.2792 30.6499C75.4979 30.1219 75.7859 29.7299 76.1432 29.4739C76.5005 29.2125 76.8845 29.0819 77.2952 29.0819C77.8285 29.0819 78.2392 29.2392 78.5272 29.5539C78.8152 29.8632 78.9592 30.3219 78.9592 30.9299C78.9592 31.5165 78.8392 31.9512 78.5992 32.2339C78.3645 32.5165 78.0552 32.6579 77.6712 32.6579C77.2872 32.6579 76.9965 32.5565 76.7992 32.3539C76.6072 32.1512 76.5112 31.8712 76.5112 31.5139V31.2019C76.5059 31.0525 76.4712 30.9405 76.4072 30.8659C76.3432 30.7859 76.2392 30.7459 76.0952 30.7459C75.9459 30.7459 75.8072 30.8072 75.6792 30.9299C75.5512 31.0525 75.4472 31.2472 75.3672 31.5139C75.2925 31.7752 75.2552 32.1165 75.2552 32.5379L74.9592 32.6179ZM75.0872 29.7059L75.2552 31.4659V35.4659C75.2552 35.6312 75.2819 35.7512 75.3352 35.8259C75.3939 35.9005 75.5112 35.9539 75.6872 35.9859L76.3352 36.0979C76.4739 36.1245 76.5752 36.1725 76.6392 36.2419C76.7085 36.3059 76.7432 36.3992 76.7432 36.5219C76.7432 36.6445 76.6979 36.7432 76.6072 36.8179C76.5219 36.8872 76.3939 36.9219 76.2232 36.9219H72.1432C71.9672 36.9219 71.8392 36.8872 71.7592 36.8179C71.6792 36.7432 71.6392 36.6445 71.6392 36.5219C71.6392 36.4312 71.6632 36.3539 71.7112 36.2899C71.7592 36.2205 71.8392 36.1645 71.9512 36.1219L72.1992 36.0419C72.2845 36.0099 72.3459 35.9539 72.3832 35.8739C72.4259 35.7885 72.4472 35.6525 72.4472 35.4659V31.2739C72.4472 31.1245 72.4259 31.0179 72.3832 30.9539C72.3405 30.8899 72.2739 30.8472 72.1832 30.8259L71.8792 30.7779C71.7779 30.7512 71.7032 30.7112 71.6552 30.6579C71.6125 30.5992 71.5912 30.5245 71.5912 30.4339C71.5912 30.3272 71.6205 30.2419 71.6792 30.1779C71.7432 30.1139 71.8552 30.0525 72.0152 29.9939L73.6312 29.3939C73.9459 29.2712 74.1725 29.1912 74.3112 29.1539C74.4499 29.1165 74.5592 29.0979 74.6392 29.0979C74.7725 29.0979 74.8712 29.1459 74.9352 29.2419C75.0045 29.3325 75.0552 29.4872 75.0872 29.7059ZM84.5573 35.8739V35.6979L84.3573 35.6819V30.6979C84.3573 30.4099 84.28 30.1832 84.1253 30.0179C83.976 29.8525 83.7707 29.7699 83.5093 29.7699C83.28 29.7699 83.096 29.8205 82.9573 29.9219C82.824 30.0232 82.7573 30.1512 82.7573 30.3059V31.0979C82.7573 31.4819 82.6267 31.7779 82.3653 31.9859C82.104 32.1939 81.736 32.2979 81.2613 32.2979C80.856 32.2979 80.552 32.2099 80.3493 32.0339C80.1467 31.8525 80.0453 31.6019 80.0453 31.2819C80.0453 30.9405 80.192 30.6019 80.4853 30.2659C80.784 29.9245 81.2267 29.6445 81.8133 29.4259C82.4053 29.2019 83.1387 29.0899 84.0133 29.0899C85.0693 29.0899 85.8533 29.2925 86.3653 29.6979C86.8773 30.1032 87.1333 30.6525 87.1333 31.3459V35.3459C87.1333 35.4685 87.16 35.5672 87.2133 35.6419C87.272 35.7112 87.3573 35.7459 87.4693 35.7459C87.5707 35.7459 87.648 35.7192 87.7013 35.6659C87.76 35.6125 87.8133 35.5592 87.8613 35.5059C87.8933 35.4685 87.9253 35.4392 87.9573 35.4179C87.9947 35.3912 88.0373 35.3779 88.0853 35.3779C88.1653 35.3779 88.2213 35.4072 88.2533 35.4659C88.2907 35.5192 88.3093 35.5885 88.3093 35.6739C88.3093 35.8819 88.2347 36.0979 88.0853 36.3219C87.9413 36.5459 87.7227 36.7379 87.4293 36.8979C87.136 37.0525 86.7707 37.1299 86.3333 37.1299C85.8 37.1299 85.3707 37.0152 85.0453 36.7859C84.72 36.5512 84.5573 36.2472 84.5573 35.8739ZM79.7333 35.2339C79.7333 34.5405 80.0453 33.9859 80.6693 33.5699C81.2933 33.1539 82.1707 32.9459 83.3013 32.9459C83.632 32.9459 83.9253 32.9725 84.1813 33.0259C84.4373 33.0739 84.6533 33.1432 84.8293 33.2339L84.6053 33.8259C84.456 33.7512 84.3093 33.6952 84.1653 33.6579C84.0267 33.6152 83.872 33.5939 83.7013 33.5939C83.3493 33.5939 83.072 33.6952 82.8693 33.8979C82.672 34.1005 82.5733 34.3859 82.5733 34.7539C82.5733 35.1272 82.664 35.4125 82.8453 35.6099C83.0267 35.8072 83.2613 35.9059 83.5493 35.9059C83.768 35.9059 83.976 35.8552 84.1733 35.7539C84.376 35.6472 84.5413 35.5139 84.6693 35.3539L84.8453 35.8899C84.5733 36.2845 84.192 36.5912 83.7013 36.8099C83.216 37.0232 82.696 37.1299 82.1413 37.1299C81.4213 37.1299 80.84 36.9539 80.3973 36.6019C79.9547 36.2445 79.7333 35.7885 79.7333 35.2339ZM92.5833 29.6979V35.4659C92.5833 35.6525 92.602 35.7885 92.6393 35.8739C92.682 35.9539 92.746 36.0099 92.8313 36.0419L93.0713 36.1219C93.1833 36.1645 93.2633 36.2205 93.3113 36.2899C93.3647 36.3539 93.3913 36.4312 93.3913 36.5219C93.3913 36.6445 93.3487 36.7432 93.2633 36.8179C93.1833 36.8872 93.0553 36.9219 92.8793 36.9219H89.4713C89.2953 36.9219 89.1673 36.8872 89.0873 36.8179C89.0073 36.7432 88.9673 36.6445 88.9673 36.5219C88.9673 36.4312 88.9913 36.3539 89.0393 36.2899C89.0873 36.2205 89.1673 36.1645 89.2793 36.1219L89.5273 36.0419C89.6127 36.0099 89.674 35.9539 89.7113 35.8739C89.754 35.7885 89.7753 35.6525 89.7753 35.4659V31.2499C89.7753 31.1005 89.754 30.9939 89.7113 30.9299C89.6687 30.8659 89.602 30.8232 89.5113 30.8019L89.2073 30.7619C89.106 30.7299 89.0313 30.6872 88.9833 30.6339C88.9407 30.5752 88.9193 30.5005 88.9193 30.4099C88.9193 30.3032 88.9487 30.2205 89.0073 30.1619C89.066 30.0979 89.178 30.0339 89.3433 29.9699L90.9993 29.3539C91.2447 29.2579 91.4367 29.1912 91.5753 29.1539C91.7193 29.1165 91.8447 29.0979 91.9513 29.0979C92.1647 29.0979 92.322 29.1539 92.4233 29.2659C92.53 29.3779 92.5833 29.5219 92.5833 29.6979ZM91.0073 28.1379C90.4953 28.1379 90.0873 28.0152 89.7833 27.7699C89.4847 27.5192 89.3353 27.1832 89.3353 26.7619C89.3353 26.3459 89.4847 26.0179 89.7833 25.7779C90.0873 25.5325 90.4953 25.4099 91.0073 25.4099C91.5193 25.4099 91.9247 25.5325 92.2233 25.7779C92.5273 26.0232 92.6793 26.3512 92.6793 26.7619C92.6793 27.1832 92.5273 27.5192 92.2233 27.7699C91.9247 28.0152 91.5193 28.1379 91.0073 28.1379ZM94.6238 30.1859L94.2958 30.0739C94.1785 30.0312 94.0905 29.9779 94.0318 29.9139C93.9785 29.8499 93.9518 29.7725 93.9518 29.6819C93.9518 29.5592 93.9945 29.4632 94.0798 29.3939C94.1705 29.3245 94.2852 29.2899 94.4238 29.2899H94.8958C95.0078 29.2899 95.1065 29.2659 95.1918 29.2179C95.2772 29.1699 95.3758 29.0819 95.4878 28.9539L96.5998 27.6739C96.7385 27.5192 96.8692 27.4045 96.9918 27.3299C97.1198 27.2552 97.2425 27.2179 97.3598 27.2179C97.4878 27.2179 97.5892 27.2605 97.6638 27.3459C97.7385 27.4312 97.7758 27.5539 97.7758 27.7139V34.3379C97.7758 34.7219 97.8452 35.0152 97.9838 35.2179C98.1278 35.4152 98.3278 35.5139 98.5838 35.5139C98.7812 35.5139 98.9332 35.4712 99.0398 35.3859C99.1518 35.2952 99.2398 35.1939 99.3038 35.0819C99.3678 34.9645 99.4345 34.8605 99.5038 34.7699C99.5732 34.6792 99.6638 34.6312 99.7758 34.6259C99.8665 34.6259 99.9385 34.6579 99.9918 34.7219C100.045 34.7805 100.072 34.8845 100.072 35.0339C100.067 35.4179 99.9492 35.7672 99.7198 36.0819C99.4958 36.3965 99.1838 36.6472 98.7838 36.8339C98.3892 37.0205 97.9358 37.1139 97.4238 37.1139C96.6505 37.1139 96.0478 36.9245 95.6158 36.5459C95.1838 36.1672 94.9678 35.5939 94.9678 34.8259V30.6739C94.9678 30.5299 94.9412 30.4259 94.8878 30.3619C94.8345 30.2925 94.7465 30.2339 94.6238 30.1859ZM96.7518 30.2339L96.7598 29.2899H99.5358C99.6798 29.2899 99.7918 29.3219 99.8718 29.3859C99.9572 29.4445 99.9998 29.5299 99.9998 29.6419C99.9998 29.8072 99.9172 29.9485 99.7518 30.0659C99.5865 30.1779 99.3172 30.2339 98.9438 30.2339H96.7518ZM108.585 32.1459C108.585 32.4659 108.495 32.7139 108.313 32.8899C108.137 33.0659 107.881 33.1539 107.545 33.1539H102.673V32.4419H105.377C105.655 32.4419 105.793 32.3139 105.793 32.0579C105.793 31.3592 105.689 30.8472 105.481 30.5219C105.279 30.1912 105.007 30.0259 104.665 30.0259C104.404 30.0259 104.172 30.1112 103.969 30.2819C103.772 30.4525 103.615 30.7059 103.497 31.0419C103.38 31.3725 103.321 31.7805 103.321 32.2659C103.321 33.2739 103.551 34.0205 104.009 34.5059C104.473 34.9859 105.095 35.2259 105.873 35.2259C106.289 35.2259 106.66 35.1565 106.985 35.0179C107.311 34.8792 107.588 34.6605 107.817 34.3619C107.94 34.2445 108.033 34.1645 108.097 34.1219C108.167 34.0792 108.233 34.0579 108.297 34.0579C108.388 34.0579 108.455 34.1032 108.497 34.1939C108.545 34.2792 108.569 34.3859 108.569 34.5139C108.553 34.9832 108.391 35.4179 108.081 35.8179C107.772 36.2125 107.348 36.5299 106.809 36.7699C106.271 37.0099 105.647 37.1299 104.937 37.1299C104.148 37.1299 103.441 36.9699 102.817 36.6499C102.199 36.3299 101.711 35.8845 101.353 35.3139C100.996 34.7379 100.817 34.0659 100.817 33.2979C100.817 32.4605 100.983 31.7272 101.313 31.0979C101.649 30.4632 102.132 29.9699 102.761 29.6179C103.396 29.2605 104.156 29.0819 105.041 29.0819C105.804 29.0819 106.449 29.2125 106.977 29.4739C107.505 29.7352 107.905 30.0979 108.177 30.5619C108.449 31.0205 108.585 31.5485 108.585 32.1459ZM115.424 35.5619V35.2899L115.328 35.2739V31.2579C115.328 31.1032 115.307 30.9939 115.264 30.9299C115.221 30.8659 115.155 30.8232 115.064 30.8019L114.76 30.7619C114.659 30.7352 114.584 30.6925 114.536 30.6339C114.493 30.5752 114.472 30.5005 114.472 30.4099C114.472 30.3085 114.501 30.2259 114.56 30.1619C114.619 30.0979 114.731 30.0339 114.896 29.9699L116.56 29.3539C116.789 29.2632 116.976 29.1992 117.12 29.1619C117.264 29.1192 117.4 29.0979 117.528 29.0979C117.731 29.0979 117.883 29.1539 117.984 29.2659C118.085 29.3779 118.136 29.5245 118.136 29.7059V35.4659C118.136 35.6525 118.155 35.7885 118.192 35.8739C118.235 35.9539 118.299 36.0099 118.384 36.0419L118.632 36.1219C118.744 36.1645 118.824 36.2205 118.872 36.2899C118.92 36.3539 118.944 36.4312 118.944 36.5219C118.944 36.6445 118.904 36.7432 118.824 36.8179C118.744 36.8872 118.613 36.9219 118.432 36.9219H116.624C116.299 36.9219 116.016 36.7912 115.776 36.5299C115.541 36.2632 115.424 35.9405 115.424 35.5619ZM110.232 34.6579V31.2579C110.232 31.1032 110.211 30.9939 110.168 30.9299C110.125 30.8659 110.059 30.8232 109.968 30.8019L109.672 30.7619C109.565 30.7352 109.488 30.6925 109.44 30.6339C109.397 30.5752 109.376 30.5005 109.376 30.4099C109.376 30.3085 109.405 30.2259 109.464 30.1619C109.528 30.0979 109.64 30.0339 109.8 29.9699L111.464 29.3539C111.704 29.2632 111.893 29.1992 112.032 29.1619C112.176 29.1192 112.301 29.0979 112.408 29.0979C112.621 29.0979 112.781 29.1539 112.888 29.2659C112.995 29.3779 113.048 29.5245 113.048 29.7059V34.2579C113.048 34.6579 113.141 34.9592 113.328 35.1619C113.52 35.3645 113.781 35.4659 114.112 35.4659C114.32 35.4659 114.536 35.4205 114.76 35.3299C114.989 35.2392 115.213 35.1005 115.432 34.9139L115.728 34.6499L116.144 35.0819L115.864 35.3379C115.16 35.9992 114.544 36.4632 114.016 36.7299C113.488 36.9965 112.997 37.1299 112.544 37.1299C111.856 37.1299 111.299 36.9032 110.872 36.4499C110.445 35.9965 110.232 35.3992 110.232 34.6579ZM123.319 32.6179C123.319 31.8285 123.425 31.1725 123.639 30.6499C123.857 30.1219 124.145 29.7299 124.503 29.4739C124.86 29.2125 125.244 29.0819 125.655 29.0819C126.188 29.0819 126.599 29.2392 126.887 29.5539C127.175 29.8632 127.319 30.3219 127.319 30.9299C127.319 31.5165 127.199 31.9512 126.959 32.2339C126.724 32.5165 126.415 32.6579 126.031 32.6579C125.647 32.6579 125.356 32.5565 125.159 32.3539C124.967 32.1512 124.871 31.8712 124.871 31.5139V31.2019C124.865 31.0525 124.831 30.9405 124.767 30.8659C124.703 30.7859 124.599 30.7459 124.455 30.7459C124.305 30.7459 124.167 30.8072 124.039 30.9299C123.911 31.0525 123.807 31.2472 123.727 31.5139C123.652 31.7752 123.615 32.1165 123.615 32.5379L123.319 32.6179ZM123.447 29.7059L123.615 31.4659V35.4659C123.615 35.6312 123.641 35.7512 123.695 35.8259C123.753 35.9005 123.871 35.9539 124.047 35.9859L124.695 36.0979C124.833 36.1245 124.935 36.1725 124.999 36.2419C125.068 36.3059 125.103 36.3992 125.103 36.5219C125.103 36.6445 125.057 36.7432 124.967 36.8179C124.881 36.8872 124.753 36.9219 124.583 36.9219H120.503C120.327 36.9219 120.199 36.8872 120.119 36.8179C120.039 36.7432 119.999 36.6445 119.999 36.5219C119.999 36.4312 120.023 36.3539 120.071 36.2899C120.119 36.2205 120.199 36.1645 120.311 36.1219L120.559 36.0419C120.644 36.0099 120.705 35.9539 120.743 35.8739C120.785 35.7885 120.807 35.6525 120.807 35.4659V31.2739C120.807 31.1245 120.785 31.0179 120.743 30.9539C120.7 30.8899 120.633 30.8472 120.543 30.8259L120.239 30.7779C120.137 30.7512 120.063 30.7112 120.015 30.6579C119.972 30.5992 119.951 30.5245 119.951 30.4339C119.951 30.3272 119.98 30.2419 120.039 30.1779C120.103 30.1139 120.215 30.0525 120.375 29.9939L121.991 29.3939C122.305 29.2712 122.532 29.1912 122.671 29.1539C122.809 29.1165 122.919 29.0979 122.999 29.0979C123.132 29.0979 123.231 29.1459 123.295 29.2419C123.364 29.3325 123.415 29.4872 123.447 29.7059ZM131.525 29.9299C131.183 29.9299 130.922 30.0099 130.741 30.1699C130.559 30.3299 130.469 30.5272 130.469 30.7619C130.469 30.9059 130.498 31.0392 130.557 31.1619C130.621 31.2845 130.746 31.3965 130.933 31.4979C131.125 31.5939 131.41 31.6819 131.789 31.7619C132.69 31.9325 133.381 32.1512 133.861 32.4179C134.341 32.6792 134.671 32.9885 134.853 33.3459C135.034 33.6979 135.125 34.0952 135.125 34.5379C135.125 35.3379 134.842 35.9699 134.277 36.4339C133.717 36.8979 132.895 37.1299 131.813 37.1299C131.434 37.1299 131.127 37.0979 130.893 37.0339C130.663 36.9752 130.477 36.9165 130.333 36.8579C130.189 36.7939 130.061 36.7619 129.949 36.7619C129.826 36.7619 129.725 36.7939 129.645 36.8579C129.565 36.9165 129.485 36.9752 129.405 37.0339C129.33 37.0979 129.234 37.1299 129.117 37.1299C129.01 37.1299 128.927 37.0979 128.869 37.0339C128.81 36.9699 128.757 36.8552 128.709 36.6899L128.237 35.1539C128.167 34.9245 128.146 34.7405 128.173 34.6019C128.205 34.4632 128.29 34.3672 128.429 34.3139C128.573 34.2605 128.698 34.2605 128.805 34.3139C128.911 34.3619 129.013 34.4605 129.109 34.6099C129.354 34.9992 129.61 35.3192 129.877 35.5699C130.149 35.8152 130.431 35.9965 130.725 36.1139C131.023 36.2259 131.33 36.2819 131.645 36.2819C132.05 36.2819 132.354 36.2019 132.557 36.0419C132.759 35.8765 132.861 35.6605 132.861 35.3939C132.861 35.2285 132.818 35.0845 132.733 34.9619C132.647 34.8339 132.485 34.7165 132.245 34.6099C132.005 34.5032 131.647 34.4019 131.173 34.3059C130.447 34.1619 129.869 33.9672 129.437 33.7219C129.005 33.4712 128.695 33.1672 128.509 32.8099C128.327 32.4525 128.237 32.0365 128.237 31.5619C128.237 31.0605 128.367 30.6259 128.629 30.2579C128.89 29.8845 129.253 29.5965 129.717 29.3939C130.181 29.1859 130.711 29.0819 131.309 29.0819C131.698 29.0819 132.007 29.1139 132.237 29.1779C132.471 29.2419 132.661 29.3085 132.805 29.3779C132.954 29.4419 133.093 29.4739 133.221 29.4739C133.354 29.4739 133.463 29.4419 133.549 29.3779C133.639 29.3085 133.727 29.2419 133.813 29.1779C133.898 29.1139 133.997 29.0819 134.109 29.0819C134.21 29.0819 134.293 29.1165 134.357 29.1859C134.426 29.2552 134.474 29.3752 134.501 29.5459L134.821 31.0099C134.863 31.2392 134.869 31.4152 134.837 31.5379C134.81 31.6605 134.73 31.7485 134.597 31.8019C134.458 31.8605 134.335 31.8579 134.229 31.7939C134.122 31.7299 134.013 31.6152 133.901 31.4499C133.549 30.8899 133.165 30.4979 132.749 30.2739C132.338 30.0445 131.93 29.9299 131.525 29.9299ZM63.8655 50.7939H66.1695C66.5055 50.7939 66.7428 50.7272 66.8815 50.5939C67.0255 50.4605 67.1428 50.2045 67.2335 49.8259C67.2761 49.6765 67.3375 49.5672 67.4175 49.4979C67.4975 49.4232 67.5961 49.3859 67.7135 49.3859C67.9535 49.3805 68.1055 49.5139 68.1695 49.7859L68.7935 52.2499C68.8308 52.4152 68.8281 52.5459 68.7855 52.6419C68.7481 52.7379 68.6628 52.8072 68.5295 52.8499C68.4068 52.8925 68.2895 52.8979 68.1775 52.8659C68.0708 52.8285 67.9801 52.7539 67.9055 52.6419C67.7401 52.3912 67.5881 52.2019 67.4495 52.0739C67.3161 51.9405 67.1668 51.8499 67.0015 51.8019C66.8361 51.7539 66.6255 51.7299 66.3695 51.7299H63.8655V50.7939ZM60.7695 46.1699C60.7695 46.0259 60.8148 45.9165 60.9055 45.8419C61.0015 45.7619 61.1481 45.7219 61.3455 45.7219H67.4255C67.6441 45.7219 67.8228 45.6979 67.9615 45.6499C68.1055 45.5965 68.2388 45.5459 68.3615 45.4979C68.4895 45.4445 68.6335 45.4179 68.7935 45.4179C68.9855 45.4179 69.1321 45.4739 69.2335 45.5859C69.3348 45.6979 69.4228 45.8792 69.4975 46.1299L70.1615 48.4019C70.2095 48.5619 70.2068 48.6952 70.1535 48.8019C70.1055 48.9085 70.0148 48.9859 69.8815 49.0339C69.7215 49.0872 69.5775 49.0845 69.4495 49.0259C69.3215 48.9672 69.2175 48.8605 69.1375 48.7059C68.9135 48.2845 68.7055 47.9405 68.5135 47.6739C68.3215 47.4072 68.1295 47.2019 67.9375 47.0579C67.7455 46.9139 67.5401 46.8152 67.3215 46.7619C67.1081 46.7032 66.8628 46.6739 66.5855 46.6739H65.0095V55.0979C65.0095 55.3912 65.0868 55.6099 65.2415 55.7539C65.3961 55.8979 65.6228 55.9699 65.9215 55.9699H66.8175C67.1961 55.9699 67.5295 55.9085 67.8175 55.7859C68.1055 55.6632 68.3801 55.4285 68.6415 55.0819C68.9081 54.7299 69.1961 54.2205 69.5055 53.5539C69.5748 53.4099 69.6628 53.3139 69.7695 53.2659C69.8815 53.2125 70.0068 53.1992 70.1455 53.2259C70.3055 53.2525 70.4201 53.3219 70.4895 53.4339C70.5588 53.5459 70.5695 53.6899 70.5215 53.8659L69.8015 56.4979C69.7321 56.7379 69.6441 56.9165 69.5375 57.0339C69.4361 57.1512 69.2788 57.2099 69.0655 57.2099C68.9215 57.2099 68.7881 57.1859 68.6655 57.1379C68.5481 57.0899 68.4175 57.0419 68.2735 56.9939C68.1295 56.9459 67.9508 56.9219 67.7375 56.9219H61.3455C61.1481 56.9219 61.0015 56.8819 60.9055 56.8019C60.8148 56.7219 60.7695 56.6125 60.7695 56.4739C60.7695 56.2392 60.8921 56.0765 61.1375 55.9859L61.5215 55.8819C61.6548 55.8392 61.7535 55.7805 61.8175 55.7059C61.8868 55.6259 61.9215 55.5219 61.9215 55.3939V47.2499C61.9215 47.1219 61.8868 47.0205 61.8175 46.9459C61.7535 46.8659 61.6548 46.8045 61.5215 46.7619L61.1375 46.6579C60.8921 46.5672 60.7695 46.4045 60.7695 46.1699ZM74.9583 49.6979V55.4659C74.9583 55.6525 74.977 55.7859 75.0143 55.8659C75.057 55.9459 75.121 56.0045 75.2063 56.0419L75.4383 56.1299C75.609 56.2099 75.6943 56.3325 75.6943 56.4979C75.6943 56.7805 75.521 56.9219 75.1743 56.9219H71.8463C71.6703 56.9219 71.5423 56.8872 71.4623 56.8179C71.3823 56.7432 71.3423 56.6445 71.3423 56.5219C71.3423 56.4312 71.3663 56.3539 71.4143 56.2899C71.4623 56.2205 71.5423 56.1645 71.6543 56.1219L71.9023 56.0419C71.9877 56.0099 72.049 55.9539 72.0863 55.8739C72.129 55.7885 72.1503 55.6525 72.1503 55.4659V51.2499C72.1503 51.1005 72.129 50.9939 72.0863 50.9299C72.0437 50.8659 71.977 50.8232 71.8863 50.8019L71.5823 50.7619C71.481 50.7299 71.4063 50.6872 71.3583 50.6339C71.3157 50.5752 71.2943 50.5005 71.2943 50.4099C71.2943 50.3032 71.3237 50.2205 71.3823 50.1619C71.441 50.0979 71.553 50.0339 71.7183 49.9699L73.3743 49.3539C73.609 49.2632 73.7957 49.1992 73.9343 49.1619C74.0783 49.1192 74.217 49.0979 74.3503 49.0979C74.5477 49.0979 74.697 49.1539 74.7983 49.2659C74.905 49.3779 74.9583 49.5219 74.9583 49.6979ZM74.6943 51.5619L74.2783 51.1299L74.5583 50.8739C75.2677 50.2072 75.8863 49.7432 76.4143 49.4819C76.9423 49.2152 77.433 49.0819 77.8863 49.0819C78.5797 49.0819 79.1397 49.3085 79.5663 49.7619C79.993 50.2099 80.2063 50.8072 80.2063 51.5539V55.4579C80.2063 55.6445 80.225 55.7805 80.2623 55.8659C80.305 55.9512 80.3717 56.0099 80.4623 56.0419L80.6943 56.1219C80.8063 56.1645 80.8863 56.2205 80.9343 56.2899C80.9823 56.3539 81.0063 56.4312 81.0063 56.5219C81.0063 56.6445 80.9663 56.7432 80.8863 56.8179C80.8063 56.8872 80.6783 56.9219 80.5023 56.9219H77.1743C76.8277 56.9219 76.6543 56.7805 76.6543 56.4979C76.6543 56.3325 76.737 56.2099 76.9023 56.1299L77.1423 56.0419C77.233 56.0045 77.297 55.9459 77.3343 55.8659C77.377 55.7805 77.3983 55.6445 77.3983 55.4579V51.9539C77.3983 51.5485 77.2997 51.2472 77.1023 51.0499C76.9103 50.8472 76.649 50.7459 76.3183 50.7459C76.1103 50.7459 75.8917 50.7912 75.6623 50.8819C75.433 50.9725 75.2117 51.1112 74.9983 51.2979L74.6943 51.5619ZM87.3205 55.9699C88.1578 56.0659 88.8271 56.2045 89.3285 56.3859C89.8298 56.5672 90.1925 56.8045 90.4165 57.0979C90.6405 57.3912 90.7525 57.7565 90.7525 58.1939C90.7525 58.9672 90.3285 59.6019 89.4805 60.0979C88.6325 60.5939 87.4005 60.8419 85.7845 60.8419C84.7658 60.8419 83.9631 60.7699 83.3765 60.6259C82.7951 60.4819 82.3818 60.2792 82.1365 60.0179C81.8911 59.7619 81.7685 59.4632 81.7685 59.1219C81.7685 58.7272 81.9631 58.3805 82.3525 58.0819C82.7418 57.7832 83.4511 57.5725 84.4805 57.4499L84.5765 57.6899C84.3525 57.7485 84.1791 57.8525 84.0565 58.0019C83.9391 58.1512 83.8805 58.3139 83.8805 58.4899C83.8805 58.9379 84.0565 59.2925 84.4085 59.5539C84.7605 59.8205 85.3791 59.9539 86.2645 59.9539C86.7711 59.9539 87.1711 59.9165 87.4645 59.8419C87.7578 59.7725 87.9685 59.6659 88.0965 59.5219C88.2245 59.3832 88.2885 59.2152 88.2885 59.0179C88.2885 58.8419 88.2138 58.6925 88.0645 58.5699C87.9151 58.4525 87.6538 58.3485 87.2805 58.2579C86.9125 58.1672 86.4005 58.0765 85.7445 57.9859C84.9391 57.8792 84.3231 57.7565 83.8965 57.6179C83.4698 57.4792 83.1765 57.3112 83.0165 57.1139C82.8618 56.9219 82.7845 56.6872 82.7845 56.4099C82.7845 56.1485 82.8591 55.9085 83.0085 55.6899C83.1578 55.4659 83.4085 55.2792 83.7605 55.1299C84.1178 54.9805 84.6111 54.8872 85.2405 54.8499L85.3605 54.9939C85.2378 55.0419 85.1471 55.0952 85.0885 55.1539C85.0351 55.2125 85.0085 55.2765 85.0085 55.3459C85.0085 55.4099 85.0485 55.4739 85.1285 55.5379C85.2085 55.5965 85.4111 55.6605 85.7365 55.7299C86.0618 55.7992 86.5898 55.8792 87.3205 55.9699ZM87.3285 49.9059L87.6005 49.2819C87.8778 48.6472 88.2218 48.1752 88.6325 47.8659C89.0431 47.5512 89.4831 47.3939 89.9525 47.3939C90.3311 47.3939 90.6378 47.5005 90.8725 47.7139C91.1071 47.9272 91.2245 48.2285 91.2245 48.6179C91.2245 48.9645 91.1365 49.2445 90.9605 49.4579C90.7898 49.6659 90.5605 49.7699 90.2725 49.7699C90.0751 49.7699 89.9205 49.7272 89.8085 49.6419C89.7018 49.5565 89.6085 49.4579 89.5285 49.3459C89.4538 49.2339 89.3685 49.1379 89.2725 49.0579C89.1765 48.9725 89.0405 48.9299 88.8645 48.9299C88.6831 48.9299 88.5285 49.0019 88.4005 49.1459C88.2778 49.2845 88.1258 49.5565 87.9445 49.9619L87.3285 49.9059ZM90.0725 51.9779C90.0725 52.6019 89.9018 53.1512 89.5605 53.6259C89.2245 54.0952 88.7445 54.4632 88.1205 54.7299C87.5018 54.9912 86.7631 55.1219 85.9045 55.1219C85.0885 55.1219 84.3898 54.9965 83.8085 54.7459C83.2271 54.4952 82.7818 54.1539 82.4725 53.7219C82.1685 53.2845 82.0165 52.7992 82.0165 52.2659C82.0165 51.6365 82.1845 51.0872 82.5205 50.6179C82.8618 50.1432 83.3445 49.7752 83.9685 49.5139C84.5978 49.2472 85.3391 49.1139 86.1925 49.1139C87.0138 49.1139 87.7125 49.2392 88.2885 49.4899C88.8698 49.7405 89.3125 50.0819 89.6165 50.5139C89.9205 50.9459 90.0725 51.4339 90.0725 51.9779ZM85.6965 49.9059C85.4671 49.9325 85.2831 50.0365 85.1445 50.2179C85.0111 50.3939 84.9285 50.6472 84.8965 50.9779C84.8645 51.3032 84.8858 51.7059 84.9605 52.1859C85.0351 52.6712 85.1391 53.0765 85.2725 53.4019C85.4058 53.7219 85.5658 53.9565 85.7525 54.1059C85.9391 54.2499 86.1498 54.3085 86.3845 54.2819C86.7365 54.2392 86.9738 54.0312 87.0965 53.6579C87.2245 53.2792 87.2325 52.7272 87.1205 52.0019C87.0138 51.2712 86.8378 50.7299 86.5925 50.3779C86.3525 50.0205 86.0538 49.8632 85.6965 49.9059ZM96.2917 55.8739V55.6979L96.0917 55.6819V50.6979C96.0917 50.4099 96.0144 50.1832 95.8597 50.0179C95.7104 49.8525 95.505 49.7699 95.2437 49.7699C95.0144 49.7699 94.8304 49.8205 94.6917 49.9219C94.5584 50.0232 94.4917 50.1512 94.4917 50.3059V51.0979C94.4917 51.4819 94.361 51.7779 94.0997 51.9859C93.8384 52.1939 93.4704 52.2979 92.9957 52.2979C92.5904 52.2979 92.2864 52.2099 92.0837 52.0339C91.881 51.8525 91.7797 51.6019 91.7797 51.2819C91.7797 50.9405 91.9264 50.6019 92.2197 50.2659C92.5184 49.9245 92.961 49.6445 93.5477 49.4259C94.1397 49.2019 94.873 49.0899 95.7477 49.0899C96.8037 49.0899 97.5877 49.2925 98.0997 49.6979C98.6117 50.1032 98.8677 50.6525 98.8677 51.3459V55.3459C98.8677 55.4685 98.8944 55.5672 98.9477 55.6419C99.0064 55.7112 99.0917 55.7459 99.2037 55.7459C99.305 55.7459 99.3824 55.7192 99.4357 55.6659C99.4944 55.6125 99.5477 55.5592 99.5957 55.5059C99.6277 55.4685 99.6597 55.4392 99.6917 55.4179C99.729 55.3912 99.7717 55.3779 99.8197 55.3779C99.8997 55.3779 99.9557 55.4072 99.9877 55.4659C100.025 55.5192 100.044 55.5885 100.044 55.6739C100.044 55.8819 99.969 56.0979 99.8197 56.3219C99.6757 56.5459 99.457 56.7379 99.1637 56.8979C98.8704 57.0525 98.505 57.1299 98.0677 57.1299C97.5344 57.1299 97.105 57.0152 96.7797 56.7859C96.4544 56.5512 96.2917 56.2472 96.2917 55.8739ZM91.4677 55.2339C91.4677 54.5405 91.7797 53.9859 92.4037 53.5699C93.0277 53.1539 93.905 52.9459 95.0357 52.9459C95.3664 52.9459 95.6597 52.9725 95.9157 53.0259C96.1717 53.0739 96.3877 53.1432 96.5637 53.2339L96.3397 53.8259C96.1904 53.7512 96.0437 53.6952 95.8997 53.6579C95.761 53.6152 95.6064 53.5939 95.4357 53.5939C95.0837 53.5939 94.8064 53.6952 94.6037 53.8979C94.4064 54.1005 94.3077 54.3859 94.3077 54.7539C94.3077 55.1272 94.3984 55.4125 94.5797 55.6099C94.761 55.8072 94.9957 55.9059 95.2837 55.9059C95.5024 55.9059 95.7104 55.8552 95.9077 55.7539C96.1104 55.6472 96.2757 55.5139 96.4037 55.3539L96.5797 55.8899C96.3077 56.2845 95.9264 56.5912 95.4357 56.8099C94.9504 57.0232 94.4304 57.1299 93.8757 57.1299C93.1557 57.1299 92.5744 56.9539 92.1317 56.6019C91.689 56.2445 91.4677 55.7885 91.4677 55.2339ZM106.102 55.9699C106.939 56.0659 107.608 56.2045 108.11 56.3859C108.611 56.5672 108.974 56.8045 109.198 57.0979C109.422 57.3912 109.534 57.7565 109.534 58.1939C109.534 58.9672 109.11 59.6019 108.262 60.0979C107.414 60.5939 106.182 60.8419 104.566 60.8419C103.547 60.8419 102.744 60.7699 102.158 60.6259C101.576 60.4819 101.163 60.2792 100.918 60.0179C100.672 59.7619 100.55 59.4632 100.55 59.1219C100.55 58.7272 100.744 58.3805 101.134 58.0819C101.523 57.7832 102.232 57.5725 103.262 57.4499L103.358 57.6899C103.134 57.7485 102.96 57.8525 102.838 58.0019C102.72 58.1512 102.662 58.3139 102.662 58.4899C102.662 58.9379 102.838 59.2925 103.19 59.5539C103.542 59.8205 104.16 59.9539 105.046 59.9539C105.552 59.9539 105.952 59.9165 106.246 59.8419C106.539 59.7725 106.75 59.6659 106.878 59.5219C107.006 59.3832 107.07 59.2152 107.07 59.0179C107.07 58.8419 106.995 58.6925 106.846 58.5699C106.696 58.4525 106.435 58.3485 106.062 58.2579C105.694 58.1672 105.182 58.0765 104.526 57.9859C103.72 57.8792 103.104 57.7565 102.678 57.6179C102.251 57.4792 101.958 57.3112 101.798 57.1139C101.643 56.9219 101.566 56.6872 101.566 56.4099C101.566 56.1485 101.64 55.9085 101.79 55.6899C101.939 55.4659 102.19 55.2792 102.542 55.1299C102.899 54.9805 103.392 54.8872 104.022 54.8499L104.142 54.9939C104.019 55.0419 103.928 55.0952 103.87 55.1539C103.816 55.2125 103.79 55.2765 103.79 55.3459C103.79 55.4099 103.83 55.4739 103.91 55.5379C103.99 55.5965 104.192 55.6605 104.518 55.7299C104.843 55.7992 105.371 55.8792 106.102 55.9699ZM106.11 49.9059L106.382 49.2819C106.659 48.6472 107.003 48.1752 107.414 47.8659C107.824 47.5512 108.264 47.3939 108.734 47.3939C109.112 47.3939 109.419 47.5005 109.654 47.7139C109.888 47.9272 110.006 48.2285 110.006 48.6179C110.006 48.9645 109.918 49.2445 109.742 49.4579C109.571 49.6659 109.342 49.7699 109.054 49.7699C108.856 49.7699 108.702 49.7272 108.59 49.6419C108.483 49.5565 108.39 49.4579 108.31 49.3459C108.235 49.2339 108.15 49.1379 108.054 49.0579C107.958 48.9725 107.822 48.9299 107.646 48.9299C107.464 48.9299 107.31 49.0019 107.182 49.1459C107.059 49.2845 106.907 49.5565 106.726 49.9619L106.11 49.9059ZM108.854 51.9779C108.854 52.6019 108.683 53.1512 108.342 53.6259C108.006 54.0952 107.526 54.4632 106.902 54.7299C106.283 54.9912 105.544 55.1219 104.686 55.1219C103.87 55.1219 103.171 54.9965 102.59 54.7459C102.008 54.4952 101.563 54.1539 101.254 53.7219C100.95 53.2845 100.798 52.7992 100.798 52.2659C100.798 51.6365 100.966 51.0872 101.302 50.6179C101.643 50.1432 102.126 49.7752 102.75 49.5139C103.379 49.2472 104.12 49.1139 104.974 49.1139C105.795 49.1139 106.494 49.2392 107.07 49.4899C107.651 49.7405 108.094 50.0819 108.398 50.5139C108.702 50.9459 108.854 51.4339 108.854 51.9779ZM104.478 49.9059C104.248 49.9325 104.064 50.0365 103.926 50.2179C103.792 50.3939 103.71 50.6472 103.678 50.9779C103.646 51.3032 103.667 51.7059 103.742 52.1859C103.816 52.6712 103.92 53.0765 104.054 53.4019C104.187 53.7219 104.347 53.9565 104.534 54.1059C104.72 54.2499 104.931 54.3085 105.166 54.2819C105.518 54.2392 105.755 54.0312 105.878 53.6579C106.006 53.2792 106.014 52.7272 105.902 52.0019C105.795 51.2712 105.619 50.7299 105.374 50.3779C105.134 50.0205 104.835 49.8632 104.478 49.9059ZM117.929 52.1459C117.929 52.4659 117.838 52.7139 117.657 52.8899C117.481 53.0659 117.225 53.1539 116.889 53.1539H112.017V52.4419H114.721C114.998 52.4419 115.137 52.3139 115.137 52.0579C115.137 51.3592 115.033 50.8472 114.825 50.5219C114.622 50.1912 114.35 50.0259 114.009 50.0259C113.748 50.0259 113.516 50.1112 113.313 50.2819C113.116 50.4525 112.958 50.7059 112.841 51.0419C112.724 51.3725 112.665 51.7805 112.665 52.2659C112.665 53.2739 112.894 54.0205 113.353 54.5059C113.817 54.9859 114.438 55.2259 115.217 55.2259C115.633 55.2259 116.004 55.1565 116.329 55.0179C116.654 54.8792 116.932 54.6605 117.161 54.3619C117.284 54.2445 117.377 54.1645 117.441 54.1219C117.51 54.0792 117.577 54.0579 117.641 54.0579C117.732 54.0579 117.798 54.1032 117.841 54.1939C117.889 54.2792 117.913 54.3859 117.913 54.5139C117.897 54.9832 117.734 55.4179 117.425 55.8179C117.116 56.2125 116.692 56.5299 116.153 56.7699C115.614 57.0099 114.99 57.1299 114.281 57.1299C113.492 57.1299 112.785 56.9699 112.161 56.6499C111.542 56.3299 111.054 55.8845 110.697 55.3139C110.34 54.7379 110.161 54.0659 110.161 53.2979C110.161 52.4605 110.326 51.7272 110.657 51.0979C110.993 50.4632 111.476 49.9699 112.105 49.6179C112.74 49.2605 113.5 49.0819 114.385 49.0819C115.148 49.0819 115.793 49.2125 116.321 49.4739C116.849 49.7352 117.249 50.0979 117.521 50.5619C117.793 51.0205 117.929 51.5485 117.929 52.1459ZM114.393 46.4019C114.569 46.0019 114.772 45.6899 115.001 45.4659C115.23 45.2419 115.526 45.1539 115.889 45.2019C116.209 45.2339 116.449 45.3645 116.609 45.5939C116.769 45.8232 116.833 46.0632 116.801 46.3139C116.764 46.5912 116.654 46.8285 116.473 47.0259C116.292 47.2232 116.033 47.4125 115.697 47.5939L114.273 48.5059C114.177 48.5485 114.078 48.5699 113.977 48.5699C113.876 48.5645 113.793 48.5325 113.729 48.4739C113.654 48.4045 113.625 48.3299 113.641 48.2499C113.657 48.1645 113.689 48.0765 113.737 47.9859L114.393 46.4019ZM122.4 49.9299C122.058 49.9299 121.797 50.0099 121.616 50.1699C121.434 50.3299 121.344 50.5272 121.344 50.7619C121.344 50.9059 121.373 51.0392 121.432 51.1619C121.496 51.2845 121.621 51.3965 121.808 51.4979C122 51.5939 122.285 51.6819 122.664 51.7619C123.565 51.9325 124.256 52.1512 124.736 52.4179C125.216 52.6792 125.546 52.9885 125.728 53.3459C125.909 53.6979 126 54.0952 126 54.5379C126 55.3379 125.717 55.9699 125.152 56.4339C124.592 56.8979 123.77 57.1299 122.688 57.1299C122.309 57.1299 122.002 57.0979 121.768 57.0339C121.538 56.9752 121.352 56.9165 121.208 56.8579C121.064 56.7939 120.936 56.7619 120.824 56.7619C120.701 56.7619 120.6 56.7939 120.52 56.8579C120.44 56.9165 120.36 56.9752 120.28 57.0339C120.205 57.0979 120.109 57.1299 119.992 57.1299C119.885 57.1299 119.802 57.0979 119.744 57.0339C119.685 56.9699 119.632 56.8552 119.584 56.6899L119.112 55.1539C119.042 54.9245 119.021 54.7405 119.048 54.6019C119.08 54.4632 119.165 54.3672 119.304 54.3139C119.448 54.2605 119.573 54.2605 119.68 54.3139C119.786 54.3619 119.888 54.4605 119.984 54.6099C120.229 54.9992 120.485 55.3192 120.752 55.5699C121.024 55.8152 121.306 55.9965 121.6 56.1139C121.898 56.2259 122.205 56.2819 122.52 56.2819C122.925 56.2819 123.229 56.2019 123.432 56.0419C123.634 55.8765 123.736 55.6605 123.736 55.3939C123.736 55.2285 123.693 55.0845 123.608 54.9619C123.522 54.8339 123.36 54.7165 123.12 54.6099C122.88 54.5032 122.522 54.4019 122.048 54.3059C121.322 54.1619 120.744 53.9672 120.312 53.7219C119.88 53.4712 119.57 53.1672 119.384 52.8099C119.202 52.4525 119.112 52.0365 119.112 51.5619C119.112 51.0605 119.242 50.6259 119.504 50.2579C119.765 49.8845 120.128 49.5965 120.592 49.3939C121.056 49.1859 121.586 49.0819 122.184 49.0819C122.573 49.0819 122.882 49.1139 123.112 49.1779C123.346 49.2419 123.536 49.3085 123.68 49.3779C123.829 49.4419 123.968 49.4739 124.096 49.4739C124.229 49.4739 124.338 49.4419 124.424 49.3779C124.514 49.3085 124.602 49.2419 124.688 49.1779C124.773 49.1139 124.872 49.0819 124.984 49.0819C125.085 49.0819 125.168 49.1165 125.232 49.1859C125.301 49.2552 125.349 49.3752 125.376 49.5459L125.696 51.0099C125.738 51.2392 125.744 51.4152 125.712 51.5379C125.685 51.6605 125.605 51.7485 125.472 51.8019C125.333 51.8605 125.21 51.8579 125.104 51.7939C124.997 51.7299 124.888 51.6152 124.776 51.4499C124.424 50.8899 124.04 50.4979 123.624 50.2739C123.213 50.0445 122.805 49.9299 122.4 49.9299Z" fill="#FFFFFF"/>
</svg>
